<svg width="234" height="192" viewBox="0 0 234 192" fill="none" xmlns="http://www.w3.org/2000/svg">
<g clip-path="url(#clip0_65_4)">
<path opacity="0.1" d="M13.1807 98.5523C13.8389 105.951 18.038 112.649 20.6004 119.696C24.2251 129.703 24.567 140.603 21.5767 150.818C20.9668 152.918 20.2143 155.024 20.2143 157.174C20.2143 164.586 28.6673 169.507 36.348 172.779C55.8707 181.059 76.2327 187.205 97.0786 191.11C103.895 192.397 112.409 192.951 116.722 188.114C118.793 185.791 119.294 182.758 120.814 180.152C124.691 173.504 134.124 170.922 142.593 169.443C152.802 167.661 163.106 166.476 173.454 165.895C183.87 165.309 195.697 164.799 202.601 157.967C206.989 153.623 208.266 147.629 208.441 141.968C209.014 123.395 200.131 103.297 211.533 87.2124C216.313 80.4663 224.119 75.5394 228.864 68.7736C235.733 58.9701 235.141 46.519 230.49 36.0711C225.839 25.6233 217.601 16.7403 209.481 8.03482C206.796 5.15711 203.931 2.16324 199.899 0.828493C195.702 -0.561048 190.943 0.0767379 186.444 0.73425C165.975 3.71935 144.729 6.97184 127.562 17.2246C119.037 22.316 111.916 28.9196 104.307 34.9928C87.8775 48.1145 68.8435 60.2347 47.1484 65.4159C29.5229 69.6261 11.5968 80.9814 13.1807 98.5523Z" fill="#F7941D"/>
<path d="M161.789 169.528C162.142 164.658 162.035 160.924 161.57 160.542C161.372 160.378 161.19 159.786 161.045 159.162C161.543 158.789 161.811 158.353 161.69 157.847C161.107 155.414 151.875 137.503 150.39 137.177C148.904 136.85 149.211 110.309 149.211 110.309L151.379 90.0616H151.348C151.524 88.9648 151.824 87.8913 152.241 86.8617C152.325 86.6578 152.412 86.4606 152.5 86.2655C154.295 86.3291 156.01 85.5335 157.493 83.4404C159.108 81.161 160.609 79.1337 161.969 77.3562C165.181 74.8577 169.134 71.0003 170.281 66.527C172.311 58.6193 163.042 50.5276 163.042 50.5276L160.157 48.5879C160.119 48.4783 160.086 48.3687 160.056 48.2591C160.025 48.1496 159.999 48.04 159.975 47.9392C160.641 47.8607 161.296 47.7093 161.929 47.4877C162.216 47.6841 162.548 47.8028 162.894 47.8324C163.24 47.862 163.588 47.8014 163.904 47.6564L163.943 47.6345C164.051 47.6074 164.156 47.5707 164.257 47.5249C164.573 47.3532 164.871 47.1514 165.148 46.9222C166.275 46.0937 167.622 45.6357 168.853 44.9738C170.948 43.8494 172.778 41.9974 173.311 39.6764C173.46 38.924 173.54 38.1596 173.55 37.3927C173.609 36.8396 173.562 36.2805 173.414 35.7445C173.269 35.3237 173 34.9577 172.831 34.5457C172.464 33.6514 172.611 32.6432 172.591 31.6767C172.565 29.8554 171.933 28.0144 170.657 26.7103C169.38 25.4062 167.469 24.7071 165.692 25.0862C165.216 25.1965 164.75 25.343 164.296 25.5246C164.092 25.5991 163.891 25.678 163.689 25.7438C162.892 26.0353 162.098 26.2566 161.276 26.0659C160.29 25.8358 159.433 25.0095 158.424 25.1279C158.213 25.156 158.008 25.2182 157.818 25.312C157.456 25.4281 157.117 25.6061 156.815 25.838C156.359 26.1626 155.927 26.5201 155.523 26.9076C155.01 27.4007 154.518 27.9924 154.446 28.7004C154.428 28.9933 154.469 29.2869 154.565 29.5641C154.662 29.8413 154.812 30.0967 155.008 30.3157C153.836 30.8602 152.791 31.6433 151.939 32.6148C151.088 33.5863 150.449 34.7248 150.064 35.9573C149.679 37.1898 149.556 38.4891 149.702 39.7719C149.849 41.0547 150.263 42.2928 150.916 43.4067C150.899 43.5075 150.88 43.6098 150.861 43.7136C150.719 44.4882 150.535 45.2549 150.313 46.0105C150.319 45.8698 150.34 45.7302 150.376 45.594C150.229 45.5612 150.078 45.5327 149.922 45.5064H149.852C149.715 45.483 149.576 45.4625 149.435 45.445H149.4C147.292 45.1798 144.718 45.4143 143.257 46.2494C140.86 47.6285 138.987 49.7606 137.928 52.3138C136.388 53.8666 135.206 55.7365 134.464 57.7931C133.385 57.2836 132.2 57.0387 131.007 57.0786C129.23 53.5718 125.869 49.2016 121.463 53.8721C116.828 58.7881 122.521 60.2281 126.424 60.6511C126.553 61.1014 126.754 61.5278 127.02 61.9135C127.303 62.3408 127.613 62.7493 127.948 63.1364C127.824 63.176 127.691 63.1828 127.562 63.1562C126.665 62.9063 126.731 72.0633 130.743 74.735C130.077 76.4051 129.212 77.9893 128.168 79.4537C126.69 81.56 125.528 83.8702 124.717 86.3115C124.302 87.5849 124.006 88.7969 124.089 89.4895C124.098 89.5691 124.114 89.6476 124.138 89.724C124.148 89.7562 124.161 89.7877 124.175 89.8183C124.189 89.8466 124.205 89.8737 124.223 89.8994C124.24 89.9223 124.259 89.9436 124.28 89.9629C124.3 89.9811 124.321 89.9972 124.344 90.0111C124.367 90.0245 124.391 90.0355 124.416 90.044C124.442 90.0514 124.469 90.0565 124.495 90.0594H124.509C124.538 90.0614 124.567 90.0614 124.596 90.0594H124.614C124.646 90.0568 124.678 90.0524 124.71 90.0462H124.732L124.831 90.0199H124.864L124.965 89.9805L125.009 89.9629L125.118 89.9103L125.167 89.8862L125.292 89.8139L125.338 89.7876L125.494 89.689L125.524 89.6692L125.724 89.5268C125.531 89.9037 125.307 90.3136 125.05 90.7366C123.782 92.8056 121.698 95.2033 118.627 95.8783C112.923 97.1298 98.2435 115.873 98.2435 115.873C98.2435 115.873 93.7176 115.56 95.5517 129.973C97.3857 144.385 97.7324 152.207 97.7324 152.207L97.8135 152.258C96.0935 154.213 92.5856 157.724 89.5361 157.766C85.3063 157.823 82.8141 160.602 84.8237 162.34C86.8332 164.078 108.737 161.34 108.737 161.34C108.737 161.34 108.882 155.622 107.84 152.994C108.015 152.84 108.179 152.674 108.331 152.497L107.249 123.59C107.249 123.59 120.924 111.88 127.591 110.745C127.547 110.721 127.503 110.699 127.461 110.677C127.883 110.611 128.312 110.603 128.736 110.653C134.563 111.444 138.986 137.981 138.986 137.981C138.986 137.981 140.059 142.158 143.262 145.378C146.465 148.598 153.573 161.036 153.573 161.036L153.869 161.003L153.909 161.071C153.909 162.955 153.621 165.785 152.153 167.992C149.74 171.626 156.513 173.033 156.513 173.033C156.513 173.033 161.438 174.398 161.789 169.528Z" fill="url(#paint0_linear_65_4)"/>
<path d="M99.8582 151.057C99.8582 151.057 94.7619 157.748 90.5453 157.807C86.3287 157.866 83.843 160.626 85.8482 162.353C87.8534 164.08 109.704 161.367 109.704 161.367C109.704 161.367 109.911 153.143 108.019 151.942C106.128 150.741 99.8582 151.057 99.8582 151.057Z" fill="#444176"/>
<path d="M154.584 159.089C154.584 159.089 155.365 164.389 152.956 168.003C150.548 171.617 157.305 173.011 157.305 173.011C157.305 173.011 162.212 174.377 162.57 169.535C162.927 164.694 162.811 160.987 162.351 160.593C161.89 160.198 161.506 157.474 161.506 157.474L154.584 159.089Z" fill="#444176"/>
<path d="M154.369 161.095C154.369 161.095 147.27 148.725 144.076 145.534C140.881 142.343 139.809 138.178 139.809 138.178C139.809 138.178 135.39 111.792 129.579 111.001C123.767 110.21 107.824 123.823 107.824 123.823L108.961 152.551C105.501 156.558 98.713 152.297 98.713 152.297C98.713 152.297 98.3642 144.504 96.5345 130.172C94.7048 115.84 99.2132 116.145 99.2132 116.145C99.2132 116.145 113.84 97.5156 119.531 96.2707C122.602 95.6022 124.669 93.2176 125.935 91.1618C126.576 90.1261 127.103 89.0237 127.505 87.8743L151.82 90.4714L149.666 110.602C149.666 110.602 149.367 136.99 150.85 137.317C152.333 137.644 161.543 155.456 162.127 157.873C162.71 160.29 154.369 161.095 154.369 161.095Z" fill="#565387"/>
<g opacity="0.1">
<path opacity="0.1" d="M128.44 111.076C128.176 110.92 127.885 110.817 127.582 110.771C121.771 109.982 105.828 123.592 105.828 123.592L106.966 152.328C105.929 153.529 104.59 153.987 103.237 154.04C105.292 154.517 107.673 154.478 109.307 152.578L108.16 123.836C108.16 123.836 121.793 112.204 128.44 111.076Z" fill="black"/>
<path opacity="0.1" d="M162.458 157.912C161.874 155.501 152.665 137.683 151.182 137.356C149.698 137.03 149.997 110.642 149.997 110.642L152.151 90.5108L149.819 90.261L147.665 110.392C147.665 110.392 147.366 136.78 148.849 137.107C150.333 137.433 159.542 155.245 160.126 157.663C160.521 159.3 156.835 160.192 154.398 160.597L154.703 161.123C154.703 161.123 163.042 160.33 162.458 157.912Z" fill="black"/>
</g>
<path d="M166.236 56.5087C166.236 56.5087 143.242 55.735 147.445 52.6513C150.039 50.7467 151.16 47.023 151.64 44.4478C151.814 43.5377 151.93 42.6175 151.987 41.6928C151.987 41.6928 164.244 40.4786 161.229 45.0351C160.44 46.2318 160.407 47.5885 160.791 48.9386C161.872 52.7434 166.236 56.5087 166.236 56.5087Z" fill="#FFBEC7"/>
<path d="M141.224 50.9769C141.224 50.9769 135.66 54.0848 134.563 61.2034C133.466 68.3221 132.564 60.9843 132.564 60.9843C132.564 60.9843 129.377 64.0088 128.396 63.737C127.415 63.4653 127.589 74.4194 132.83 75.8221C138.071 77.2248 142.211 54.2754 142.211 54.2754L141.224 50.9769Z" fill="#DFE5EE"/>
<path opacity="0.05" d="M141.224 50.9769C141.224 50.9769 135.66 54.0848 134.563 61.2034C133.466 68.3221 132.564 60.9843 132.564 60.9843C132.564 60.9843 129.377 64.0088 128.396 63.737C127.415 63.4653 127.589 74.4194 132.83 75.8221C138.071 77.2248 142.211 54.2754 142.211 54.2754L141.224 50.9769Z" fill="black"/>
<path d="M133.247 61.0609C133.247 61.0609 128.973 47.4723 122.326 54.5099C115.678 61.5474 130.344 61.4247 130.344 61.4247L133.247 61.0609Z" fill="#FFBEC7"/>
<path opacity="0.1" d="M161.232 45.0374C160.442 46.234 160.409 47.5907 160.793 48.9408C158.994 49.1752 157.166 48.8739 155.538 48.0746C153.909 47.2753 152.553 46.0137 151.64 44.4478C151.814 43.5377 151.93 42.6176 151.987 41.6928C151.987 41.6928 164.246 40.4786 161.232 45.0374Z" fill="black"/>
<path d="M168.743 40.7902C169.47 35.7598 165.978 31.0927 160.943 30.366C155.907 29.6393 151.236 33.1282 150.508 38.1587C149.781 43.1891 153.273 47.8562 158.309 48.5829C163.344 49.3096 168.016 45.8207 168.743 40.7902Z" fill="#FFBEC7"/>
<path opacity="0.1" d="M151.82 90.4759L151.504 93.4193C148.821 92.7026 130.414 87.94 126.518 90.8024C126.333 90.9407 126.138 91.0645 125.935 91.1728C126.576 90.1371 127.103 89.0347 127.505 87.8853L151.82 90.4759Z" fill="black"/>
<path d="M170.997 67.1144C169.77 71.8857 165.332 75.9404 162.032 78.3929C160.819 79.3038 159.551 80.1397 158.235 80.8958C158.235 80.8958 154.819 82.8837 153.011 87.3263C152.323 89.0273 151.951 90.8396 151.914 92.6741C151.914 92.6741 130.805 86.8858 126.601 89.9695C124.392 91.5914 124.741 89.2988 125.57 86.7608C126.378 84.3336 127.536 82.0373 129.008 79.9446C130.169 78.2767 131.625 75.833 132.064 73.5558C132.646 70.5312 136.592 59.027 138.426 53.7669C139.409 50.8877 141.407 48.4642 144.047 46.9485C145.75 45.9863 148.935 45.8263 151.155 46.3151C151.155 46.3151 150.44 48.6931 153.726 49.1183C154.082 49.1643 154.435 49.2279 154.784 49.309C156.1 49.618 159.345 50.2339 160.784 49.195L163.77 51.196C163.77 51.196 173.017 59.2527 170.997 67.1144Z" fill="#DFE5EE"/>
<path opacity="0.1" d="M161.282 35.3523C161.491 34.9622 161.339 34.4581 161.041 34.1293C160.72 33.8215 160.34 33.5821 159.924 33.4258L157.921 32.5184C157.247 32.2521 156.619 31.8823 156.059 31.4225C155.523 30.936 155.137 30.2324 155.209 29.5158C155.282 28.7991 155.771 28.2227 156.284 27.7339C156.687 27.3487 157.118 26.9935 157.572 26.6709C157.935 26.3783 158.366 26.1809 158.825 26.0967C159.828 25.9783 160.683 26.8002 161.666 27.0304C163.147 27.3767 164.571 26.3531 166.054 26.0375C167.826 25.6606 169.742 26.3575 171.005 27.6528C172.269 28.9481 172.91 30.7804 172.936 32.5907C172.951 33.5529 172.811 34.5633 173.175 35.4399C173.342 35.8498 173.614 36.2136 173.756 36.6322C173.905 37.1653 173.951 37.7215 173.892 38.2716C173.886 39.0369 173.809 39.7999 173.662 40.551C173.131 42.8589 171.306 44.6977 169.217 45.8111C167.989 46.4686 166.646 46.9245 165.523 47.7464C165.25 47.9734 164.956 48.1738 164.645 48.3447C164.331 48.4872 163.986 48.5466 163.643 48.517C163.299 48.4874 162.969 48.37 162.684 48.1759C162.485 48.0484 162.321 47.8735 162.206 47.667C162.091 47.4605 162.029 47.2287 162.026 46.9924C162.048 46.5234 162.364 46.1267 162.607 45.7256C163.243 44.6802 163.393 43.1986 162.546 42.3109C162.175 41.923 161.668 41.6951 161.302 41.2984C160.714 40.6409 160.644 39.694 160.624 38.8174C160.567 37.1802 160.525 35.475 161.21 33.9956" fill="black"/>
<path d="M161.394 33.9977C161.073 33.6899 160.694 33.4505 160.277 33.2942L158.274 32.3868C157.6 32.1205 156.972 31.7508 156.412 31.291C155.876 30.8044 155.49 30.1009 155.563 29.3842C155.635 28.6675 156.124 28.0911 156.638 27.6023C157.04 27.2172 157.471 26.8619 157.925 26.5393C158.289 26.2467 158.719 26.0493 159.178 25.9651C160.181 25.8468 161.036 26.6686 162.019 26.8988C163.5 27.2451 164.924 26.2215 166.407 25.9059C168.18 25.529 170.095 26.2259 171.359 27.5212C172.622 28.8165 173.263 30.6488 173.289 32.4591C173.304 33.4213 173.164 34.4317 173.528 35.3084C173.695 35.7182 173.967 36.082 174.11 36.5006C174.258 37.0337 174.304 37.5899 174.246 38.14C174.236 38.9025 174.157 39.6626 174.009 40.4106C173.478 42.7185 171.653 44.5574 169.564 45.6707C168.335 46.3282 166.993 46.7841 165.869 47.606C165.597 47.8331 165.303 48.0334 164.992 48.2043C164.678 48.3469 164.333 48.4062 163.989 48.3766C163.646 48.3471 163.316 48.2296 163.031 48.0356C162.832 47.908 162.667 47.7332 162.552 47.5266C162.437 47.3201 162.376 47.0883 162.372 46.8521C162.394 46.383 162.71 45.9863 162.954 45.5853C163.59 44.5398 163.739 43.0582 162.892 42.1706C162.522 41.7826 162.015 41.5547 161.648 41.158C161.061 40.5005 160.99 39.5537 160.971 38.677C160.914 37.0398 160.635 35.4968 161.319 34.0087" fill="#88455E"/>
<path opacity="0.1" d="M167.69 71.4233C166.341 72.9816 164.4 75.3048 162.039 78.393C160.825 79.3039 159.557 80.1397 158.241 80.8959C158.241 80.8959 154.826 82.8838 153.018 87.3263C145.829 87.7033 137.139 73.4265 137.139 73.4265L142.829 67.4717L152.531 74.3975L155.69 67.6361C156.528 65.8406 157.82 64.2943 159.438 63.1498C161.057 62.0052 162.946 61.3019 164.92 61.1092L165.071 61.096C167.091 60.9119 168.259 62.1173 168.93 63.6428C169.479 64.9244 169.654 66.3351 169.434 67.7118C169.215 69.0886 168.611 70.3753 167.69 71.4233Z" fill="black"/>
<g opacity="0.05">
<path opacity="0.05" d="M149.657 46.1552C149.657 46.1552 148.942 48.5332 152.228 48.9584C152.583 49.0044 152.937 49.0679 153.285 49.149C154.264 49.3833 155.261 49.5336 156.265 49.5983C155.675 49.5063 155.152 49.3967 154.784 49.309C154.415 49.2214 154.082 49.1644 153.726 49.1184C150.436 48.6932 151.155 46.3152 151.155 46.3152C150.509 46.1781 149.852 46.0945 149.192 46.0653C149.352 46.0938 149.508 46.1223 149.657 46.1552Z" fill="black"/>
<path opacity="0.05" d="M163.772 51.1983L160.786 49.1973C160.562 49.3529 160.315 49.472 160.054 49.5501L162.274 51.0383C162.274 51.0383 171.519 59.0928 169.498 66.9545C168.272 71.7258 163.834 75.7805 160.534 78.233C159.32 79.1439 158.052 79.9798 156.736 80.7359C156.736 80.7359 153.321 82.7238 151.513 87.1664C150.858 88.7934 150.492 90.5224 150.433 92.2752C151.37 92.5141 151.921 92.6654 151.921 92.6654C151.958 90.8309 152.329 89.0186 153.018 87.3176C154.826 82.875 158.241 80.8871 158.241 80.8871C159.557 80.131 160.825 79.2951 162.039 78.3842C165.33 75.9339 169.777 71.877 171.003 67.1057C173.017 59.2528 163.772 51.1983 163.772 51.1983Z" fill="black"/>
<path opacity="0.05" d="M125.11 89.8096L124.952 89.9192C125.035 90.6118 125.5 90.7827 126.608 89.9696C127.924 89.0096 130.862 88.9088 134.287 89.2266C130.237 88.7378 126.604 88.7137 125.11 89.8096Z" fill="black"/>
</g>
<path opacity="0.05" d="M131.016 76.5717C131.016 76.5717 132.711 80.9551 135.065 82.5441C137.419 84.133 140.502 86.8266 140.502 86.8266" fill="black"/>
<path d="M163.083 155.548L159.547 140.289C158.037 137.784 156.486 136.438 155.185 135.721C153.509 134.691 152.175 134.698 151.754 134.735L151.28 134.235C149.477 131.691 148.52 125.03 148.52 125.03C148.426 121.907 146.445 119.792 143.896 118.363C139.6 115.792 133.44 115.295 132.13 115.218L131.086 113.142L130.805 113.075L130.739 112.943C130.52 112.884 130.272 112.833 130.033 112.785L131.88 74.9147L131.897 74.5487L139.192 74.9038C139.763 74.91 140.314 74.6951 140.73 74.3041C141.146 73.9131 141.394 73.3764 141.423 72.8065C141.451 72.2367 141.257 71.678 140.882 71.2477C140.508 70.8174 139.98 70.5489 139.411 70.4985L130.871 70.082V69.8979L131.669 53.5347V53.3505C132.05 53.0532 132.361 52.6771 132.583 52.2481C132.804 51.8191 132.929 51.3473 132.951 50.8652C132.979 50.4401 132.923 50.0136 132.785 49.6105C132.647 49.2074 132.43 48.8359 132.147 48.5176C131.863 48.1993 131.519 47.9407 131.134 47.7569C130.75 47.5731 130.332 47.4677 129.906 47.447C129.48 47.4263 129.055 47.4907 128.654 47.6364C128.253 47.782 127.885 48.006 127.572 48.2953C127.259 48.5846 127.007 48.9334 126.831 49.3212C126.654 49.709 126.557 50.1281 126.544 50.5539C126.519 51.0357 126.598 51.5173 126.776 51.9656C126.955 52.4139 127.228 52.8183 127.578 53.1511V53.3352L126.775 69.7007V69.8848L118.225 69.4815C117.654 69.4753 117.103 69.6902 116.687 70.0812C116.271 70.4722 116.023 71.0089 115.995 71.5788C115.966 72.1486 116.16 72.7072 116.535 73.1376C116.91 73.5679 117.437 73.8364 118.006 73.8868L124.945 74.2244L124.928 74.5904L123.056 112.945C120.374 113.282 117.722 113.832 115.128 114.591L112.109 125.298L103.292 126.893L98.6977 136.975L94.4152 144.477C93.9611 144.644 93.5201 144.821 93.0989 145.003C77.1385 151.732 76.4913 168.441 76.4913 168.441C80.9383 176.016 103.395 172.696 103.395 172.696C116.211 184.173 141.686 177.504 141.686 177.504C147.829 179.016 152.691 179.672 156.526 179.819C167.219 180.226 169.908 176.669 169.908 176.669C173.756 166.92 163.083 155.548 163.083 155.548Z" fill="url(#paint1_linear_65_4)"/>
<path d="M127.702 53.0585L125.651 72.2319L129.739 72.6684L131.79 53.4949L127.702 53.0585Z" fill="#F7941D"/>
<path d="M123.937 73.1266L119.341 116.089L126.271 116.829L130.867 73.8665L123.937 73.1266Z" fill="#F0F5FA"/>
<path opacity="0.05" d="M130.878 73.866L127.501 73.5055L122.905 116.468L126.282 116.829L130.878 73.866Z" fill="black"/>
<path opacity="0.1" d="M123.938 73.1282L123.748 74.9043L130.679 75.6442L130.869 73.8681L123.938 73.1282Z" fill="black"/>
<path opacity="0.1" d="M125.86 70.2804L125.651 72.233L129.739 72.6695L129.948 70.7168L125.86 70.2804Z" fill="black"/>
<path d="M138.465 71.8011L117.321 69.5436C116.142 69.4178 115.085 70.2695 114.959 71.4461C114.833 72.6226 115.687 73.6783 116.865 73.8041L138.01 76.0616C139.188 76.1874 140.245 75.3356 140.371 74.1591C140.497 72.9826 139.644 71.9269 138.465 71.8011Z" fill="#F7941D"/>
<path d="M77.5356 169.099C77.5356 169.099 77.3579 151.96 94.3341 144.99L98.2655 137.492L102.377 127.494L111.135 125.521L113.636 114.988C113.636 114.988 123.289 111.595 129.541 112.844L130.792 114.988C130.792 114.988 146.877 114.81 147.59 123.557C147.59 123.557 149.198 131.592 151.522 133.021C151.522 133.021 155.453 132.129 159.384 137.843L163.673 152.484C163.673 152.484 174.932 163.017 171.536 172.658C171.536 172.658 166.89 179.264 143.299 174.802C143.299 174.802 118.1 182.473 104.687 171.952C104.702 171.955 82.3621 176.239 77.5356 169.099Z" fill="#A8A8A8"/>
<path opacity="0.1" d="M88.7945 166.421C88.7945 166.421 92.3684 161.421 92.1906 157.851C92.0129 154.281 93.0331 145.567 93.0331 145.567" stroke="black" stroke-miterlimit="10"/>
<path opacity="0.1" d="M101.841 153.029C101.841 153.029 105.415 146.424 105.058 142.853C105.058 142.853 108.811 136.059 111.67 136.605" stroke="black" stroke-miterlimit="10"/>
<path opacity="0.1" d="M121.501 134.284C121.501 134.284 131.329 130.713 131.867 127.855" stroke="black" stroke-miterlimit="10"/>
<path opacity="0.1" d="M125.075 142.496C125.075 142.496 135.441 137.863 135.441 136.605H140.622C140.622 136.605 148.128 146.423 147.235 150.71" stroke="black" stroke-miterlimit="10"/>
<path opacity="0.1" d="M137.229 149.637C137.229 149.637 127.22 148.922 123.646 151.78C120.073 154.638 113.638 156.065 113.638 156.065C113.638 156.065 109.884 164.1 108.456 165.529C107.028 166.958 104.702 171.957 104.702 171.957" stroke="black" stroke-miterlimit="10"/>
<path opacity="0.1" d="M137.229 159.1C137.229 159.1 138.293 162.848 139.73 164.992C141.167 167.135 143.303 174.81 143.303 174.81" stroke="black" stroke-miterlimit="10"/>
<path opacity="0.1" d="M154.027 169.991C154.027 169.991 156.295 176.296 158.29 176.347" stroke="black" stroke-miterlimit="10"/>
<path opacity="0.1" d="M139.17 142.926C139.17 142.926 145.063 144.517 147.527 148.372C149.99 152.227 157.524 155.725 157.524 155.725" stroke="black" stroke-miterlimit="10"/>
<path opacity="0.1" d="M141.695 123.928C141.695 123.928 141.695 132.14 144.019 132.14C146.342 132.14 151.526 133.041 151.526 133.041" stroke="black" stroke-miterlimit="10"/>
<path opacity="0.1" d="M130.316 114.181C130.316 114.181 129.721 128.368 126.685 132.039" stroke="black" stroke-miterlimit="10"/>
<g opacity="0.05">
<path opacity="0.05" d="M163.32 152.315L159.031 137.674C155.1 131.96 151.168 132.852 151.168 132.852C148.845 131.426 147.237 123.397 147.237 123.397C146.522 114.648 130.439 114.828 130.439 114.828L129.188 112.684C127.604 112.369 125.803 112.349 123.997 112.498C124.436 112.542 124.851 112.603 125.257 112.684L126.507 114.828C126.507 114.828 142.593 114.65 143.306 123.397C143.306 123.397 144.914 131.432 147.237 132.861C147.237 132.861 151.168 131.969 155.1 137.683L159.389 152.324C159.389 152.324 170.648 162.848 167.252 172.492C167.252 172.492 164.959 175.751 155.42 176.143C168.278 176.614 171.183 172.492 171.183 172.492C174.579 162.848 163.32 152.315 163.32 152.315Z" fill="black"/>
<path opacity="0.05" d="M100.411 171.777C96.6275 172.453 92.8019 172.866 88.9613 173.015C93.4368 173.186 98.0944 172.704 101.096 172.29C100.866 172.123 100.638 171.952 100.411 171.777Z" fill="black"/>
<path opacity="0.05" d="M139.014 174.633C133.512 176.174 127.847 177.069 122.137 177.298C130.375 177.596 138.178 175.882 141.397 175.058C140.625 174.929 139.828 174.789 139.014 174.633Z" fill="black"/>
</g>
<path opacity="0.05" d="M131.722 53.3967L129.589 53.1689L127.728 70.5663L129.861 70.794L131.722 53.3967Z" fill="black"/>
<path opacity="0.1" d="M131.797 53.5017L131.647 54.8956C131.022 55.3102 130.271 55.4933 129.525 55.4133C128.778 55.3332 128.083 54.995 127.56 54.4573L127.709 53.0634L131.797 53.5017Z" fill="black"/>
<path d="M133.077 52.3778C133.266 50.6133 131.987 49.0301 130.221 48.8415C128.455 48.6529 126.87 49.9305 126.681 51.6949C126.493 53.4594 127.772 55.0426 129.538 55.2312C131.304 55.4198 132.889 54.1423 133.077 52.3778Z" fill="#F7941D"/>
<path opacity="0.05" d="M133.084 52.3862C132.993 53.2329 132.568 54.0087 131.904 54.543C131.24 55.0773 130.391 55.3263 129.543 55.2354L130.228 48.8444C130.648 48.8892 131.056 49.0163 131.427 49.2187C131.798 49.421 132.126 49.6945 132.391 50.0234C132.657 50.3524 132.854 50.7304 132.973 51.1359C133.092 51.5413 133.13 51.9662 133.084 52.3862Z" fill="black"/>
<path d="M144.106 68.1116L141.864 71.7433L139.719 69.8825L136.779 67.3314C136.779 67.3314 131.342 67.7697 127.863 62.5096C126.371 60.2588 127.532 58.97 129.342 58.2358C130.839 57.6424 132.488 57.5457 134.045 57.9601C135.602 58.3745 136.984 59.2779 137.988 60.5371L144.106 68.1116Z" fill="#FFBEC7"/>
<path opacity="0.1" d="M144.106 68.1116L141.866 71.7433L139.721 69.8803L142.873 66.584L144.106 68.1116Z" fill="black"/>
<path d="M156.427 67.042L153.268 73.8013L143.558 66.8755L137.876 72.8303C137.876 72.8303 150.912 94.2477 158.257 83.9247C162.712 77.6543 166.302 73.2884 168.432 70.8271C169.353 69.7797 169.959 68.4932 170.179 67.1164C170.399 65.7395 170.225 64.3285 169.676 63.0466C169.005 61.5124 167.837 60.3179 165.817 60.4998L165.665 60.5151C163.69 60.7064 161.799 61.4091 160.179 62.5537C158.559 63.6983 157.266 65.2454 156.427 67.042Z" fill="#DFE5EE"/>
<path d="M201.658 144.734C201.658 144.734 198.749 134.871 202.204 127.608C203.672 124.572 204.115 121.142 203.466 117.833C203.145 116.265 202.682 114.729 202.081 113.245" stroke="#535461" stroke-width="2" stroke-miterlimit="10"/>
<path d="M204.227 108.656C204.227 109.866 202.033 113.37 202.033 113.37C202.033 113.37 199.839 109.864 199.839 108.656C199.839 108.075 200.07 107.517 200.482 107.106C200.893 106.695 201.451 106.464 202.033 106.464C202.615 106.464 203.173 106.695 203.584 107.106C203.996 107.517 204.227 108.075 204.227 108.656Z" fill="#F7941D"/>
<path d="M207.851 115.352C207.193 116.366 203.446 118.12 203.446 118.12C203.446 118.12 203.514 113.986 204.172 112.971C204.5 112.512 204.993 112.197 205.548 112.092C206.102 111.987 206.676 112.099 207.15 112.406C207.624 112.712 207.961 113.189 208.092 113.738C208.222 114.287 208.136 114.865 207.851 115.352Z" fill="#F7941D"/>
<path d="M207.691 126.797C206.61 127.34 202.49 126.966 202.49 126.966C202.49 126.966 204.637 123.433 205.717 122.889C205.975 122.745 206.26 122.654 206.554 122.622C206.849 122.591 207.146 122.619 207.429 122.706C207.712 122.792 207.975 122.935 208.201 123.126C208.428 123.316 208.613 123.55 208.747 123.815C208.88 124.079 208.958 124.367 208.977 124.662C208.996 124.957 208.955 125.253 208.856 125.532C208.758 125.811 208.604 126.067 208.403 126.284C208.203 126.502 207.961 126.677 207.691 126.799V126.797Z" fill="#F7941D"/>
<path d="M205.62 135.43C204.646 136.149 200.522 136.473 200.522 136.473C200.522 136.473 202.04 132.629 203.014 131.91C203.244 131.722 203.51 131.583 203.795 131.501C204.08 131.419 204.38 131.395 204.674 131.432C204.969 131.469 205.253 131.565 205.51 131.715C205.766 131.864 205.99 132.065 206.166 132.303C206.343 132.542 206.469 132.814 206.538 133.103C206.606 133.392 206.615 133.691 206.564 133.984C206.513 134.276 206.403 134.555 206.241 134.803C206.078 135.052 205.867 135.265 205.62 135.43Z" fill="#F7941D"/>
<path d="M198.843 118.356C199.721 119.198 203.755 120.073 203.755 120.073C203.755 120.073 202.766 116.06 201.897 115.218C201.695 114.999 201.45 114.824 201.178 114.703C200.906 114.581 200.611 114.517 200.313 114.513C200.015 114.509 199.72 114.566 199.444 114.68C199.169 114.794 198.92 114.963 198.712 115.177C198.504 115.39 198.342 115.644 198.236 115.922C198.129 116.2 198.081 116.497 198.093 116.795C198.105 117.092 198.178 117.384 198.307 117.653C198.436 117.921 198.619 118.161 198.843 118.356Z" fill="#F7941D"/>
<path d="M196.551 128.48C197.632 129.024 201.752 128.649 201.752 128.649C201.752 128.649 199.605 125.116 198.525 124.572C198.267 124.428 197.982 124.337 197.688 124.306C197.393 124.274 197.096 124.303 196.813 124.389C196.529 124.475 196.267 124.618 196.04 124.809C195.814 124.999 195.629 125.234 195.495 125.498C195.362 125.762 195.283 126.05 195.265 126.345C195.246 126.64 195.287 126.936 195.385 127.215C195.484 127.494 195.638 127.75 195.838 127.968C196.039 128.185 196.281 128.36 196.551 128.482V128.48Z" fill="#F7941D"/>
<path d="M195.671 138.628C196.645 139.346 200.77 139.671 200.77 139.671C200.77 139.671 199.251 135.827 198.277 135.108C197.809 134.795 197.238 134.675 196.683 134.772C196.128 134.869 195.631 135.175 195.296 135.627C194.961 136.08 194.813 136.644 194.883 137.202C194.953 137.761 195.235 138.271 195.671 138.628Z" fill="#F7941D"/>
<path d="M16.3706 110.876C16.3706 110.876 25.5498 120.046 20.3679 133.652C15.1859 147.259 29.2574 169.886 29.2574 169.886C29.2574 169.886 29.106 169.864 28.8186 169.816C9.96674 166.491 0.601124 144.953 11.0834 128.951C14.9819 123.001 18.1806 116.022 16.3706 110.876Z" fill="#F7941D"/>
<path opacity="0.1" d="M16.3706 111.027C16.3706 111.027 25.5498 120.198 20.3679 133.804C15.1859 147.41 29.2574 170.037 29.2574 170.037C29.2574 170.037 29.106 170.015 28.8186 169.967C9.96893 166.642 0.603311 145.095 11.0856 129.096C14.9819 123.154 18.1806 116.165 16.3706 111.027Z" fill="black"/>
<path d="M16.3706 110.876C16.3706 110.876 21.5525 122.115 16.3706 131.285C11.1887 140.455 15.4931 166.188 29.2508 169.886" stroke="#535461" stroke-miterlimit="10"/>
<path d="M0.0241318 147.962C0.0241318 147.962 10.4977 146.296 11.452 155.672C12.4063 165.049 31.5917 166.355 31.5917 166.355L31.2319 166.589C15.3922 176.978 0.247906 173.206 2.53172 159.411C3.36978 154.285 3.31054 149.135 0.0241318 147.962Z" fill="#F7941D"/>
<path d="M0.0241318 147.962C0.0241318 147.962 8.1546 149.744 7.48328 157.13C6.81195 164.516 19.5583 173.368 31.5917 166.355" stroke="#535461" stroke-miterlimit="10"/>
<path d="M192.727 142.641C192.727 142.641 197.643 142.489 199.124 141.435C200.605 140.381 206.686 139.123 207.053 140.813C207.419 142.503 214.439 149.218 208.891 149.264C203.343 149.31 195.996 148.4 194.517 147.511C193.038 146.621 192.727 142.641 192.727 142.641Z" fill="#A8A8A8"/>
<path opacity="0.2" d="M208.99 148.677C203.439 148.72 196.094 147.813 194.616 146.923C193.49 146.237 193.041 143.78 192.891 142.645H192.727C192.727 142.645 193.038 146.605 194.517 147.506C195.996 148.407 203.341 149.314 208.891 149.26C210.493 149.246 211.046 148.677 211.017 147.835C210.793 148.348 210.181 148.666 208.99 148.677Z" fill="black"/>
<path d="M39.7134 167.131C39.7134 167.131 31.4622 165.478 29.2574 163.286C27.0526 161.095 17.1582 157.244 16.0591 159.999C14.96 162.754 1.2154 172.075 10.5657 173.723C19.9159 175.372 32.5636 175.915 35.3125 174.819C38.0614 173.723 39.7134 167.131 39.7134 167.131Z" fill="#A8A8A8"/>
<path opacity="0.2" d="M10.5657 172.711C19.9159 174.359 32.5636 174.903 35.3125 173.807C37.4076 172.969 38.8622 168.95 39.4369 167.078L39.7112 167.135C39.7112 167.135 38.0614 173.728 35.3125 174.826C32.5636 175.924 19.9137 175.376 10.5657 173.73C7.86721 173.254 7.09497 172.137 7.38675 170.723C7.61491 171.639 8.55608 172.349 10.5657 172.711Z" fill="black"/>
</g>
<defs>
<linearGradient id="paint0_linear_65_4" x1="122.525" y1="169.446" x2="138.277" y2="21.9044" gradientUnits="userSpaceOnUse">
<stop stop-color="#808080" stop-opacity="0.25"/>
<stop offset="0.54" stop-color="#808080" stop-opacity="0.12"/>
<stop offset="1" stop-color="#808080" stop-opacity="0.1"/>
</linearGradient>
<linearGradient id="paint1_linear_65_4" x1="123.295" y1="179.997" x2="130.099" y2="47.8644" gradientUnits="userSpaceOnUse">
<stop stop-color="#808080" stop-opacity="0.25"/>
<stop offset="0.54" stop-color="#808080" stop-opacity="0.12"/>
<stop offset="1" stop-color="#808080" stop-opacity="0.1"/>
</linearGradient>
<clipPath id="clip0_65_4">
<rect width="234" height="192" fill="white"/>
</clipPath>
</defs>
</svg>
