<svg width="306" height="179" viewBox="0 0 306 179" fill="none" xmlns="http://www.w3.org/2000/svg">
<g clip-path="url(#clip0_91_175)">
<path d="M160.256 67.6327C162.289 65.0635 165.266 64.0275 166.905 65.3185C168.544 66.6095 168.224 69.7383 166.19 72.3081C165.391 73.3457 164.355 74.1775 163.168 74.7339L154.416 85.511L149.434 81.306L158.591 71.1282C158.858 69.8471 159.429 68.6485 160.256 67.6327H160.256V67.6327V67.6327Z" fill="#FFB6B6"/>
<path d="M128.003 63.0217L140.773 84.6712L156.233 74.0179L162.452 76.4924C162.452 76.4924 151.465 100.346 141.993 98.7944C132.52 97.2429 113.671 75.8981 115.834 68.4442C117.998 60.9903 128.003 63.0217 128.003 63.0217H128.003V63.0217V63.0217Z" fill="#F7941D"/>
<path d="M166.497 56.3504L159.361 58.4526L164.279 75.0622L171.414 72.96L166.497 56.3504Z" fill="#F7941D"/>
<path d="M126.4 63.5609L126.553 53.4088L120.277 49.5062L113.453 57.8333L126.4 63.5609Z" fill="#FFB6B6"/>
<path opacity="0.1" d="M126.4 63.5609L126.806 53.6618L120.277 49.5062L122.495 61.7569L126.4 63.5609Z" fill="black"/>
<path d="M123.039 54.4203C129.203 54.4203 134.2 49.4354 134.2 43.2863C134.2 37.1371 129.203 32.1522 123.039 32.1522C116.875 32.1522 111.878 37.1371 111.878 43.2863C111.878 49.4354 116.875 54.4203 123.039 54.4203Z" fill="#FFB6B6"/>
<path d="M141.642 130.691L139.675 144.027L138.687 150.742L134.57 178.685C129.376 178.523 124.249 178.29 119.2 177.996L119.933 160.981L120.376 150.742L120.667 144.027L120.847 139.8L118.201 129.716C118.201 129.716 117.329 128.101 116.443 125.948C116.287 125.566 116.128 125.167 115.976 124.757C114.877 121.827 114.006 118.339 115.1 116.515C115.154 116.43 115.207 116.349 115.267 116.271C115.763 115.631 117.049 115.154 118.796 114.801C119.862 114.581 121.106 114.412 122.445 114.281C126.499 113.882 131.448 113.822 135.236 113.86C138.662 113.889 141.135 113.995 141.135 113.995L141.17 115.122L141.174 115.232L141.199 116.087L141.259 118.13L141.411 123.177L141.567 128.306L141.642 130.691Z" fill="#2F2E41"/>
<path d="M141.567 128.306L136.051 139.344L132.561 144.027L127.562 150.742L119.933 160.982L107.837 177.222C102.019 176.77 96.3151 176.229 90.7489 175.614L105.555 150.742L109.552 144.027L113.41 137.548L115.862 127.415C115.862 127.415 115.862 126.874 115.901 126.008C115.919 125.644 115.944 125.22 115.976 124.757C116.192 121.664 116.847 116.734 118.796 114.801C119.058 114.536 119.345 114.331 119.657 114.189C120.242 113.928 121.216 113.991 122.445 114.281C125.485 115.006 130.077 117.14 134.201 119.261C137.053 120.731 139.679 122.191 141.411 123.177L141.567 128.306Z" fill="#2F2E41"/>
<path d="M114.887 55.6854L127.567 61.7567C127.567 61.7567 141.007 101.473 141.007 103.497C141.007 105.521 144.811 106.786 142.529 109.062C140.246 111.339 146.777 113.267 143.258 115.086C139.739 116.905 117.789 126.852 115.348 125.955C108.616 123.481 115.633 114.39 115.633 114.39C115.633 114.39 110.576 110.327 111.337 108.304C112.098 106.28 106.772 67.5751 106.772 67.5751L114.887 55.6854L114.887 55.6854V55.6854V55.6854Z" fill="#F7941D"/>
<path d="M123.978 45.8741L126.78 47.4377C126.78 47.4377 125.062 42.369 126.315 40.1334C127.569 37.8978 126.838 36.3156 126.838 36.3156C126.838 36.3156 131.311 37.7848 132.489 35.9471C133.667 34.1094 134.057 33.1526 130.22 31.5983C126.384 30.0439 127.827 31.1431 127.827 31.1431C127.827 31.1431 124.551 29.9015 125.272 30.4511C125.994 31.0007 122.557 29.5222 123.041 30.2328C123.525 30.9434 120.885 29.6167 121.369 30.3273C121.854 31.0379 115.253 32.0504 116.611 32.5149C117.969 32.9793 111.046 33.5181 111.254 38.9182C111.462 44.3182 107.692 45.85 110.474 47.4195C113.256 48.9891 117.139 55.7066 117.139 55.7066L120.414 53.486C120.414 53.486 119.429 44.8028 123.978 45.8741H123.978V45.8741V45.8741Z" fill="#2F2E41"/>
<path d="M100.201 103.732C103.455 103.312 105.875 101.296 105.607 99.2301C105.338 97.1643 102.483 95.831 99.2277 96.2521C97.9251 96.4025 96.6775 96.8619 95.5894 97.5919L81.8243 99.5473L82.8819 105.972L96.3395 103.362C97.5786 103.791 98.9028 103.918 100.201 103.732V103.732Z" fill="#A0616A"/>
<path d="M58.1197 75.5418L61.8953 103.58C61.8953 103.58 62.9339 109.61 72.3873 108.722C81.8408 107.834 94.2641 104.177 94.2641 104.177L93.4556 97.6297L82.8968 98.7707C82.8968 98.7707 77.968 97.5779 76.9895 98.3823C76.0111 99.1868 76.4605 100.129 75.4928 98.9572C74.5251 97.7859 75.011 97.0586 74.1638 98.083C73.3165 99.1073 73.1445 100.888 72.637 98.6826C72.1295 96.4773 71.1855 96.9256 71.1855 96.9256L70.6483 76.3873C70.6483 76.3873 67.812 66.5901 62.6315 69.8657C57.451 73.1413 58.1197 75.5418 58.1197 75.5418H58.1197V75.5418H58.1197Z" fill="#E6E6E6"/>
<path d="M74.6681 53.1719H55.969V80.7344H74.6681V53.1719Z" fill="#2F2E41"/>
<path d="M60.1663 72.3301L60.8211 64.4358H69.5282L71.4584 72.7997L60.1663 72.3301Z" fill="#A0616A"/>
<path opacity="0.1" d="M60.1663 72.3301L60.8211 64.4358H69.5282L71.4584 72.7997L60.1663 72.3301Z" fill="black"/>
<path d="M75.9405 58.9741C76.7825 53.7982 73.2589 48.9213 68.0703 48.0814C62.8817 47.2415 57.993 50.7565 57.151 55.9324C56.309 61.1083 59.8326 65.9851 65.0212 66.825C70.2098 67.665 75.0985 64.15 75.9405 58.9741Z" fill="#A0616A"/>
<path d="M68.9467 47.4645C68.9467 47.4645 68.9467 43.5668 65.3185 44.402C61.6903 45.2372 60.5739 46.6293 60.5739 46.6293C60.5739 46.6293 59.1785 48.8565 56.9458 49.135C54.713 49.4134 52.7594 55.8168 53.0385 57.2088C53.3176 58.6009 54.713 62.2202 52.7594 63.8906C50.8058 65.5611 48.0149 68.0668 48.8522 70.5725C49.6894 73.0781 52.2012 79.4816 52.2012 79.4816C52.2012 79.4816 45.1954 80.5031 45.7679 84.8645C45.7679 84.8645 49.1313 82.2656 53.5967 82.2656C58.0621 82.2656 57.504 74.1841 57.504 74.1841C57.504 74.1841 57.783 69.1804 58.6203 67.7884C59.4576 66.3963 58.3412 58.6009 62.5276 54.4247C66.7139 50.2486 68.9467 47.4645 68.9467 47.4645H68.9467Z" fill="#2F2E41"/>
<path d="M67.8303 46.6293C67.8303 46.6293 73.1331 47.7429 75.0867 53.0327C77.0403 58.3225 76.0536 59.3068 76.0536 59.3068C76.0536 59.3068 76.4856 62.492 78.8561 63.6089C81.2267 64.7259 79.273 69.4588 79.273 69.4588C79.273 69.4588 79.8312 74.1918 87.3667 75.8622C94.9021 77.5327 77.9171 90.3426 77.9171 90.3426C77.9171 90.3426 79.1383 84.2967 71.3237 84.0183C63.5092 83.7399 72.854 69.4588 72.854 69.4588L73.6912 60.2713C73.6912 60.2713 72.0167 49.6918 66.9931 48.2997C61.9694 46.9077 67.8303 46.6293 67.8303 46.6293L67.8303 46.6293H67.8303Z" fill="#2F2E41"/>
<path d="M81.342 130.946L79.4145 144.027L78.426 150.742L76.7501 162.102L75.053 173.614C73.0441 173.324 71.06 173.023 69.1006 172.712C65.7347 172.179 62.4396 171.617 59.2154 171.023L59.8426 156.415L60.087 150.742L60.3776 144.027L60.5476 140.051L57.8974 129.967C57.8974 129.967 52.4304 119.812 54.9673 116.525C55.0842 116.377 55.2401 116.236 55.4385 116.105C56.0834 115.67 57.1463 115.324 58.482 115.055C61.6389 114.412 66.3158 114.179 70.5781 114.118C76.0486 114.041 80.8318 114.249 80.8318 114.249L80.8601 115.08L80.9133 116.882L81.342 130.946Z" fill="#2F2E41"/>
<path d="M81.342 130.946L79.4146 144.027L78.426 150.742L76.7502 162.102L69.1007 172.712C65.7347 172.179 62.4397 171.617 59.2155 171.023C56.8452 170.588 54.5174 170.136 52.225 169.669L59.8426 156.415L63.1022 150.742L66.9571 144.027L68.8101 140.803L70.4222 137.997L71.6021 132.766L72.5091 128.754L72.7182 127.828C72.7182 127.828 72.6969 126.372 72.8351 124.418C73.0477 121.456 73.6323 117.342 75.2408 115.408C75.5526 115.027 75.9069 114.733 76.3073 114.546C77.1435 114.154 78.7945 114.422 80.8601 115.08L80.9133 116.882L81.342 130.946L81.342 130.946Z" fill="#2F2E41"/>
<path d="M72.0845 72.3816L71.8522 72.3162L60.4193 69.093L51.29 81.4886L57.3762 107.292L55.0939 117.664C55.0939 117.664 73.606 112.857 80.9601 116.905C80.9601 116.905 81.4673 114.598 80.9601 113.475C80.453 112.351 79.6922 107.676 80.453 105.587C81.2137 103.497 78.9314 93.6312 78.9314 93.6312C78.9314 93.6312 79.6922 87.054 76.3955 83.7653C73.0988 80.4767 72.0845 72.3816 72.0845 72.3816L72.0845 72.3816V72.3816Z" fill="#E6E6E6"/>
<path d="M68.911 141.215C69.7308 144.384 72.0347 146.531 74.0566 146.011C76.0784 145.49 77.0524 142.499 76.2319 139.328C75.9216 138.057 75.3106 136.879 74.4502 135.892L70.8066 122.507L64.5464 124.346L68.8029 137.346C68.5287 138.626 68.5658 139.952 68.911 141.215V141.215H68.911Z" fill="#A0616A"/>
<path d="M70.5712 83.7746C70.5712 83.7746 67.0254 74.2157 63.1392 74.8381C59.2529 75.4604 55.7098 81.469 55.7098 81.469L58.5192 115.473L66.2358 134.877L74.4212 131.658L70.1695 112.265L70.5712 83.7746V83.7746V83.7746Z" fill="#E6E6E6"/>
<path opacity="0.7" d="M247.856 24.7397V171.288C247.739 171.313 247.622 171.334 247.502 171.351C245.705 171.677 243.884 171.988 242.042 172.292C239.852 172.652 237.631 173.002 235.381 173.338C233.51 173.614 231.622 173.882 229.712 174.14C224.153 174.9 218.438 175.575 212.585 176.162C210.71 176.353 208.818 176.533 206.916 176.703C190.281 178.194 172.601 179 154.269 179C151.672 179 149.093 178.982 146.524 178.951C146.404 178.951 146.287 178.951 146.17 178.947V24.7397H247.856Z" fill="#F2F2F2"/>
<path d="M247.502 73.0873V73.522L247.548 73.4301C247.544 73.317 247.527 73.2039 247.502 73.0873ZM146.17 119.261L145.815 118.975V150.742H146.17V178.947C146.287 178.951 146.404 178.951 146.524 178.951V97.8354C146.407 97.899 146.29 97.9591 146.17 98.0191V119.261ZM145.815 24.3864V178.94C145.932 178.943 146.049 178.947 146.17 178.947C146.287 178.951 146.404 178.951 146.524 178.951V25.0932H247.502V171.352C247.622 171.334 247.739 171.313 247.856 171.288C247.973 171.27 248.093 171.249 248.21 171.224V24.3864H145.815Z" fill="#3F3D56"/>
<path d="M154.849 135.546C158.567 135.546 161.581 132.539 161.581 128.83C161.581 125.121 158.567 122.115 154.849 122.115C151.131 122.115 148.117 125.121 148.117 128.83C148.117 132.539 151.131 135.546 154.849 135.546Z" fill="#3F3D56"/>
<path d="M153.978 126.97C156.394 129.184 159.498 129.735 160.911 128.201C162.323 126.666 161.509 123.628 159.091 121.413C158.137 120.515 156.982 119.858 155.722 119.497L145.364 110.244L141.115 115.185L151.777 123.782C152.245 125.005 152.999 126.098 153.978 126.97H153.978V126.97Z" fill="#FFB6B6"/>
<path d="M124.041 77.8748C124.041 77.8748 115.852 71.7793 112.931 74.4108C110.01 77.0422 110.314 84.0066 110.314 84.0066L131.218 111.012L148.276 123.104L153.388 115.96L139.244 101.997L124.041 77.8748L124.041 77.8748V77.8748Z" fill="#F7941D"/>
<path d="M212.585 138.725V176.162C210.71 176.353 208.818 176.533 206.916 176.703V138.725H212.585Z" fill="#3F3D56"/>
<path d="M5.66893 138.725V155.726C3.68833 154.853 1.79632 153.955 0 153.04V138.725H5.66893Z" fill="#3F3D56"/>
<path d="M210.457 144.027H3.89575V150.743H210.457V144.027Z" fill="#F7941D"/>
<path d="M256.229 44.7706C256.229 44.7706 252.45 46.9816 253.689 49.1681C254.929 51.3546 256.657 54.3329 255.484 55.2709C254.312 56.2088 252.377 60.3444 252.377 60.3444C252.377 60.3444 244.116 59.1934 244.892 65.5947C245.667 71.9959 249.548 72.8686 246.222 75.6846C242.895 78.5007 249.679 81.8687 249.679 81.8687C249.679 81.8687 254.362 80.4129 255.43 75.9363C256.498 71.4597 254.477 79.3592 255.155 79.9257C255.833 80.4921 258.464 84.2256 260.327 79.2617C262.189 74.2978 260.345 72.3732 262.805 69.4436C265.266 66.5139 266.938 61.7754 266.865 60.9471C266.792 60.1188 269.68 52.5603 265.235 49.6125C260.79 46.6647 256.229 44.7706 256.229 44.7706H256.229Z" fill="#2F2E41"/>
<path d="M224.15 114.577C222.255 116.707 219.618 117.458 218.26 116.255C216.901 115.052 217.336 112.351 219.232 110.221C219.977 109.36 220.919 108.689 221.977 108.265L230.119 99.3434L234.235 103.244L225.771 111.625C225.475 112.724 224.919 113.737 224.15 114.577H224.15Z" fill="#FFB6B6"/>
<path d="M247.958 72.6007C247.958 72.6007 252.896 68.0757 254.979 69.599C257.063 71.1224 257.33 75.6893 257.33 75.6893L245.491 94.7122L228.416 109.069L224.601 104.746L239.648 89.3619L247.958 72.6007V72.6007V72.6007Z" fill="#3F3D56"/>
<path d="M257.965 62.3483L255.29 71.8329H269.971L265.137 60.1465L257.965 62.3483Z" fill="#FFB6B6"/>
<path opacity="0.1" d="M257.965 62.3483L255.29 71.8329H269.971L265.137 60.1465L257.965 62.3483Z" fill="black"/>
<path d="M265.41 93.6477L274.018 113.935L244.885 112.5L246.865 93.6477H265.41Z" fill="#FFB6B6"/>
<path d="M256.988 66.9767L269.136 66.4718L277.235 80.6098L270.148 103.331L245.346 105.856L248.032 83.943L249.396 71.5211L256.988 66.9767Z" fill="#3F3D56"/>
<path d="M277.235 132.968C276.651 135.792 276.016 139.662 275.396 143.857C275.074 146.041 274.755 148.314 274.45 150.573C273.664 156.365 272.962 162.067 272.498 165.947C268.643 166.944 264.636 167.895 260.487 168.793L258.344 150.573L257.554 143.857L256.735 136.908L256.367 143.857L256.009 150.573L254.981 169.938C252.76 170.383 250.503 170.811 248.21 171.224C248.093 171.249 247.973 171.27 247.856 171.288C247.739 171.313 247.622 171.334 247.502 171.351C245.705 171.677 243.884 171.988 242.042 172.292L241.737 150.573L241.642 143.857L241.298 119.491L244.292 109.623L245.195 109.541L247.502 109.333L247.856 109.301L248.21 109.266L271.155 107.187L271.921 107.117C271.921 107.117 272.466 108.181 273.217 109.951C273.281 110.1 273.349 110.255 273.416 110.414C274.064 111.969 274.837 113.988 275.542 116.267C276.474 119.265 277.292 122.714 277.565 126.146C277.749 128.475 277.685 130.794 277.235 132.968Z" fill="#2F2E41"/>
<path d="M278.131 123.755C277.918 126.594 276.276 128.786 274.465 128.65C272.654 128.515 271.359 126.103 271.573 123.263C271.642 122.127 271.984 121.024 272.568 120.047L273.625 108.028L279.268 108.643L277.628 120.426C278.06 121.48 278.232 122.621 278.131 123.755Z" fill="#FFB6B6"/>
<path d="M271.569 75.9717C271.569 75.9717 272.748 69.3871 275.331 69.3395C277.913 69.2918 280.9 72.7629 280.9 72.7629L283.039 95.0518L278.179 116.794L272.517 115.662L275.141 94.3281L271.569 75.9717L271.569 75.9717V75.9717Z" fill="#3F3D56"/>
<path d="M261.453 64.4094C266.336 64.4094 270.295 60.4607 270.295 55.5896C270.295 50.7186 266.336 46.7698 261.453 46.7698C256.57 46.7698 252.612 50.7186 252.612 55.5896C252.612 60.4607 256.57 64.4094 261.453 64.4094Z" fill="#FFB6B6"/>
<path d="M258.064 45.7407C258.064 45.7407 256.59 49.8566 258.948 50.7386C261.306 51.6206 264.548 52.7966 264.253 54.2665C263.958 55.7365 265.137 60.1464 265.137 60.1464C265.137 60.1464 258.064 64.5563 262.779 68.9662C267.495 73.3762 271.031 71.559 270.295 75.8485C269.558 80.138 276.926 78.3741 276.926 78.3741C276.926 78.3741 279.578 74.2582 277.515 70.1422C275.452 66.0263 278.989 73.3762 279.873 73.3762C280.757 73.3762 285.178 74.5521 283.409 69.5542C281.641 64.5563 278.989 64.2623 278.989 60.4404C278.989 56.6185 277.22 51.9146 276.631 51.3266C276.041 50.7386 273.389 43.0948 268.084 43.6827C262.779 44.2707 258.064 45.7407 258.064 45.7407H258.064V45.7407V45.7407Z" fill="#2F2E41"/>
<path d="M218.476 102.332L211.34 104.434L216.257 121.043L223.393 118.941L218.476 102.332Z" fill="#F7941D"/>
<path d="M101.554 88.1937L94.4182 90.2959L99.3354 106.905L106.471 104.803L101.554 88.1937Z" fill="#F7941D"/>
<path d="M235.381 138.556V173.338C233.51 173.614 231.622 173.882 229.712 174.14V138.556H235.381Z" fill="#3F3D56"/>
<path d="M306 143.857H233.61V150.572H306V143.857Z" fill="#F7941D"/>
<path d="M123.603 27.0618C128.314 27.0618 132.134 23.2515 132.134 18.5512C132.134 13.8509 128.314 10.0405 123.603 10.0405C118.891 10.0405 115.071 13.8509 115.071 18.5512C115.071 23.2515 118.891 27.0618 123.603 27.0618Z" fill="#E6E6E6"/>
<path d="M266.498 40.4854C271.209 40.4854 275.029 36.675 275.029 31.9747C275.029 27.2745 271.209 23.4641 266.498 23.4641C261.786 23.4641 257.966 27.2745 257.966 31.9747C257.966 36.675 261.786 40.4854 266.498 40.4854Z" fill="#E6E6E6"/>
<path d="M125.936 20.7188C125.479 20.6952 125.022 20.6847 124.565 20.6811C124.868 18.9787 125.172 17.2763 125.475 15.5739C125.545 15.1829 125.429 14.7866 125.068 14.5761C124.724 14.3753 124.279 14.4427 123.994 14.7142C123.152 15.5177 122.31 16.3212 121.468 17.1247C121.122 17.4546 121.135 18.0422 121.468 18.3743C121.813 18.7189 122.374 18.7052 122.72 18.3743C122.907 18.1967 123.093 18.0191 123.279 17.8416L122.766 20.7201C122.266 20.7449 121.767 20.7773 121.269 20.8262C120.793 20.8728 120.383 21.1989 120.383 21.7098C120.383 22.1975 120.789 22.5827 121.269 22.5934C122.005 22.6097 122.741 22.6261 123.477 22.6424C123.66 22.6465 123.862 22.5727 124.024 22.4506C124.662 22.4446 125.299 22.4531 125.936 22.486C126.414 22.5108 126.822 22.0622 126.822 21.6024C126.822 21.1033 126.416 20.7436 125.936 20.7188V20.7188Z" fill="white"/>
<path d="M192.413 17.0213C197.125 17.0213 200.944 13.2109 200.944 8.51064C200.944 3.81034 197.125 0 192.413 0C187.701 0 183.881 3.81034 183.881 8.51064C183.881 13.2109 187.701 17.0213 192.413 17.0213Z" fill="#F7941D"/>
<path d="M194.747 10.6783C194.29 10.6546 193.832 10.6442 193.375 10.6406C193.679 8.9382 193.982 7.23579 194.285 5.5334C194.355 5.14236 194.239 4.74607 193.878 4.53555C193.534 4.33473 193.089 4.40219 192.805 4.67372C191.963 5.47721 191.12 6.28069 190.278 7.08418C189.932 7.41407 189.945 8.00164 190.278 8.33379C190.624 8.67841 191.184 8.66463 191.531 8.33379C191.717 8.1562 191.903 7.97862 192.089 7.80104L191.576 10.6795C191.077 10.7044 190.578 10.7368 190.079 10.7857C189.603 10.8323 189.194 11.1584 189.194 11.6693C189.194 12.157 189.599 12.5422 190.079 12.5529C190.815 12.5692 191.551 12.5855 192.287 12.6019C192.471 12.606 192.672 12.5322 192.835 12.4101C193.472 12.4041 194.109 12.4125 194.747 12.4455C195.225 12.4702 195.632 12.0217 195.632 11.5619C195.632 11.0628 195.226 10.7031 194.747 10.6783L194.747 10.6783Z" fill="white"/>
<path d="M66.9981 40.4694C71.7099 40.4694 75.5296 36.6591 75.5296 31.9588C75.5296 27.2585 71.7099 23.4481 66.9981 23.4481C62.2863 23.4481 58.4667 27.2585 58.4667 31.9588C58.4667 36.6591 62.2863 40.4694 66.9981 40.4694Z" fill="#E6E6E6"/>
<path d="M69.5932 34.3711C68.8598 33.9929 68.059 33.7915 67.2548 33.7632C67.8819 32.7559 68.3141 31.6249 68.4842 30.4585C68.5834 29.7622 68.594 29.066 68.1015 28.504C67.726 28.0728 67.1839 27.9067 66.6347 27.8536C66.1883 27.8112 65.6568 27.8395 65.2352 27.9809C64.4947 28.2212 64.2502 28.8574 64.2679 29.582C64.2857 30.2712 64.392 30.971 64.8561 31.5118C65.175 31.8829 65.6391 32.1268 66.1245 32.1657C65.6781 33.0846 65.0368 33.8975 64.2254 34.5797C63.8888 34.8589 63.8995 35.4209 64.1546 35.739C64.4309 36.0853 64.9022 36.1843 65.299 35.9652C66.3406 35.3855 67.6445 35.3537 68.7003 35.898C69.1255 36.1171 69.6605 36.0076 69.9121 35.5799C70.1459 35.1841 70.0219 34.5903 69.5932 34.3711V34.3711ZM66.78 29.8471C66.78 29.9036 66.7764 29.9566 66.7694 30.0132C66.7658 30.045 66.7623 30.0733 66.7623 30.0909C66.7587 30.1086 66.7587 30.1227 66.7552 30.1263V30.1298C66.741 30.2182 66.7198 30.303 66.7056 30.3878C66.5639 30.349 66.415 30.3454 66.2698 30.3949C66.2556 30.3984 66.2485 30.3984 66.2379 30.402H66.2273C66.1989 30.3808 66.1777 30.3631 66.2344 30.3984C66.2025 30.3631 66.1848 30.3419 66.1741 30.3348L66.1493 30.2889C66.1529 30.303 66.1529 30.3136 66.1529 30.3171C66.1458 30.3065 66.1351 30.2747 66.1174 30.2182C66.0997 30.1546 66.082 30.0874 66.0678 30.0203C66.0466 29.9142 66.043 29.7764 66.0395 29.6209C66.0537 29.6209 66.0678 29.6173 66.0714 29.6173C66.1741 29.6102 66.2733 29.6067 66.3761 29.6067C66.4434 29.6067 66.5107 29.6138 66.578 29.6173C66.5957 29.6244 66.7091 29.6491 66.7516 29.6597C66.7587 29.6668 66.7694 29.6739 66.7765 29.6774C66.7835 29.688 66.7871 29.6951 66.7977 29.7057L66.78 29.8471L66.78 29.8471Z" fill="white"/>
<path d="M267.687 31.8616C268.282 31.4057 268.753 30.7341 268.703 29.9566C268.611 28.5216 267.201 27.8677 265.954 27.6274C265.483 27.5355 264.997 27.7581 264.863 28.2423C264.746 28.6771 265.012 29.2391 265.483 29.331C265.685 29.3698 265.887 29.4158 266.089 29.4759C266.191 29.5041 266.294 29.5395 266.393 29.5819C266.422 29.596 266.525 29.642 266.542 29.6526C266.624 29.695 266.709 29.7445 266.787 29.801C266.794 29.8116 266.836 29.8505 266.865 29.8788C266.801 29.8293 266.921 30.0166 266.921 29.9707C266.928 29.9884 266.932 30.0025 266.935 30.0166V30.0485C266.935 30.052 266.914 30.1227 266.921 30.1227C266.865 30.2146 266.843 30.257 266.808 30.2923C266.656 30.462 266.549 30.5256 266.326 30.6316C265.809 30.8826 265.238 31.0169 264.721 31.2784C263.821 31.7379 264.448 33.1693 265.405 32.8937C265.451 32.8831 265.493 32.8689 265.54 32.8583C265.564 32.8548 265.607 32.8477 265.635 32.8477C265.695 32.8477 265.752 32.8477 265.809 32.8513H265.83C265.947 32.876 266.064 32.9043 266.174 32.9502C266.188 32.9573 266.209 32.9679 266.227 32.982C266.276 33.0103 266.33 33.0421 266.379 33.0704L266.436 33.1093L266.439 33.1128C266.486 33.1481 266.525 33.1906 266.567 33.2294C266.574 33.2365 266.613 33.2825 266.634 33.3037C266.652 33.3284 266.687 33.3744 266.691 33.3814C266.723 33.4344 266.755 33.491 266.783 33.5475C266.787 33.5581 266.79 33.5758 266.794 33.5935C266.801 33.6288 266.811 33.6677 266.822 33.7066C266.819 33.7207 266.826 33.7808 266.826 33.8197C266.826 33.8303 266.826 33.8374 266.829 33.8444C266.819 33.8904 266.804 33.9363 266.794 33.9823C266.79 33.9929 266.79 33.9964 266.79 34C266.758 34.06 266.723 34.1166 266.691 34.1731C266.687 34.1802 266.68 34.1837 266.677 34.1908V34.1943C266.638 34.2332 266.606 34.2686 266.567 34.3074C266.542 34.3322 266.51 34.3569 266.482 34.3817C266.461 34.3923 266.404 34.4347 266.39 34.4418C266.34 34.4665 266.294 34.4948 266.245 34.5195H266.241C266.237 34.523 266.234 34.523 266.23 34.523C266.163 34.5442 266.099 34.5619 266.036 34.5796H266.025C265.965 34.5796 265.823 34.5619 265.823 34.569C265.802 34.5654 265.773 34.5584 265.756 34.5549C265.717 34.5337 265.642 34.4948 265.642 34.4948C264.661 33.9081 263.768 35.4385 264.746 36.0216C266.333 36.9689 268.494 35.6965 268.594 33.901C268.64 33.0845 268.264 32.367 267.687 31.8616H267.687Z" fill="white"/>
</g>
<defs>
<clipPath id="clip0_91_175">
<rect width="306" height="179" fill="white"/>
</clipPath>
</defs>
</svg>
