<svg width="206" height="208" viewBox="0 0 206 208" fill="none" xmlns="http://www.w3.org/2000/svg">
<g clip-path="url(#clip0_65_264)">
<path d="M0 204.887C0 205.146 0.208104 205.353 0.467251 205.353H205.533C205.792 205.353 206 205.146 206 204.887C206 204.629 205.792 204.422 205.533 204.422H0.467251C0.208104 204.422 0 204.629 0 204.887Z" fill="#3F3D56"/>
<path d="M139.79 93.2791H59.039C49.8818 93.2791 42.4583 100.68 42.4583 109.809V187.871C42.4583 197 49.8817 204.401 59.039 204.401H139.79C148.948 204.401 156.371 197 156.371 187.871V109.809C156.371 100.68 148.948 93.2791 139.79 93.2791L139.79 93.2791Z" fill="white"/>
<path d="M139.79 204.792H59.039C49.68 204.792 42.0657 197.201 42.0657 187.871V109.809C42.0657 100.479 49.68 92.8877 59.039 92.8877H139.79C149.149 92.8877 156.764 100.479 156.764 109.809V187.871C156.764 197.201 149.149 204.792 139.79 204.792H139.79ZM59.039 93.6705C50.1128 93.6705 42.851 100.91 42.851 109.809V187.871C42.851 196.77 50.1128 204.009 59.039 204.009H139.79C148.716 204.009 155.978 196.77 155.978 187.871V109.809C155.978 100.91 148.716 93.6705 139.79 93.6705H59.039Z" fill="#3F3D56"/>
<path d="M145.64 127.122H113.182C111.805 127.122 110.685 126.005 110.685 124.633C110.685 123.26 111.805 122.144 113.182 122.144H145.64C147.016 122.144 148.136 123.26 148.136 124.633C148.136 126.005 147.016 127.122 145.64 127.122Z" fill="#F7941D"/>
<path d="M115.19 146.696H83.6396C82.8442 146.696 82.197 146.051 82.197 145.258C82.197 144.465 82.8442 143.82 83.6396 143.82H115.19C115.985 143.82 116.632 144.465 116.632 145.258C116.632 146.051 115.985 146.696 115.19 146.696V146.696Z" fill="#F7941D"/>
<path d="M70.5966 98.6251H52.5838C52.5165 98.6251 52.462 98.6795 52.462 98.7465V100.837C52.462 100.904 52.5165 100.958 52.5838 100.958H70.5966C70.6639 100.958 70.7184 100.904 70.7184 100.837V98.7465C70.7184 98.6795 70.6639 98.6251 70.5966 98.6251Z" fill="#F7941D"/>
<path d="M131.27 100.958C132.304 100.958 133.142 100.123 133.142 99.0918C133.142 98.0608 132.304 97.2251 131.27 97.2251C130.236 97.2251 129.397 98.0608 129.397 99.0918C129.397 100.123 130.236 100.958 131.27 100.958Z" fill="#3F3D56"/>
<path d="M136.419 100.958C137.453 100.958 138.291 100.123 138.291 99.0918C138.291 98.0608 137.453 97.2251 136.419 97.2251C135.385 97.2251 134.547 98.0608 134.547 99.0918C134.547 100.123 135.385 100.958 136.419 100.958Z" fill="#3F3D56"/>
<path d="M141.568 100.958C142.602 100.958 143.441 100.123 143.441 99.0918C143.441 98.0608 142.602 97.2251 141.568 97.2251C140.534 97.2251 139.696 98.0608 139.696 99.0918C139.696 100.123 140.534 100.958 141.568 100.958Z" fill="#3F3D56"/>
<path d="M58.8424 154.394C58.8424 154.652 59.0505 154.86 59.3097 154.86H139.52C139.779 154.86 139.987 154.652 139.987 154.394C139.987 154.136 139.779 153.928 139.52 153.928H59.3097C59.0505 153.928 58.8424 154.136 58.8424 154.394Z" fill="#3F3D56"/>
<path d="M83.305 39.5011C85.0126 38.0944 87.1248 37.8326 88.0225 38.9161C88.9203 39.9997 88.2637 42.0179 86.5553 43.4249C85.8806 43.9962 85.0785 44.3981 84.216 44.5971L76.9053 50.4659L74.2159 46.9871L81.7084 41.5708C82.0672 40.7637 82.6146 40.054 83.305 39.5011H83.305Z" fill="#A0616A"/>
<path d="M41.0503 52.7428C41.0466 52.4833 41.049 50.2193 42.7303 48.7883C44.6616 47.1445 47.3867 47.8099 48.3426 48.0432C50.5506 48.5823 50.7317 49.5266 52.8052 50.4968C56.6845 52.312 51.8239 51.3829 54.1322 50.8008C54.9312 50.5993 66.4262 49.8046 69.2875 48.0489C74.8525 44.6343 78.6442 42.5637 78.6442 42.5637L81.1229 47.506C81.1229 47.506 77.5387 52.4745 72.4941 56.1553C67.3196 59.9309 64.7323 61.8187 60.8003 62.5481C60.4617 62.6109 52.1341 64.0284 45.4269 59.0328C43.897 57.8933 41.0939 55.8055 41.0503 52.7428L41.0503 52.7428Z" fill="#E6E6E6"/>
<path d="M48.7394 40.1736C53.5084 40.1736 57.3744 36.3195 57.3744 31.5652C57.3744 26.8109 53.5084 22.9568 48.7394 22.9568C43.9705 22.9568 40.1045 26.8109 40.1045 31.5652C40.1045 36.3195 43.9705 40.1736 48.7394 40.1736Z" fill="#A0616A"/>
<path d="M116.365 89.3998L107.472 80.325L102.882 85.0987L109.507 93.7998L116.079 94.5492L116.365 89.3998Z" fill="#A0616A"/>
<path d="M65.5868 72.3824C66.1069 72.4255 67.7598 72.7556 69.3397 71.8891C70.4179 71.2977 70.9709 70.4183 71.1576 70.1387C73.4747 66.6694 82.368 61.2595 90.3496 60.9266C92.1571 60.8512 93.3468 61.06 94.4282 61.6219C95.9616 62.4188 96.5737 63.5602 98.5195 66.234C99.5839 67.6966 100.762 69.0745 101.839 70.5278C108.145 79.0358 110.536 79.7037 110.292 82.4313C110.02 85.4576 106.746 88.3288 104.57 87.9974C103.679 87.8616 103.334 87.2439 102.144 85.9933C98.6528 82.3266 97.2085 83.0041 94.7231 80.1956C91.8213 76.9166 92.2012 74.1978 90.6873 74.0928C89.2834 73.9954 88.6868 76.3148 85.6895 79.3959C84.318 80.8057 83.3414 81.4525 80.3661 83.5103C68.7794 91.5238 68.5944 92.0869 66.2561 92.7261C65.2331 93.0057 57.9719 94.9903 55.3852 91.832C51.3374 86.8897 60.9 71.9942 65.5868 72.3824V72.3824Z" fill="#2F2E41"/>
<path d="M113.646 91.4504C114.3 91.1576 115.065 90.8153 115.311 90.028C115.477 89.4954 115.382 88.8385 115.037 88.3847C114.64 87.861 114.053 87.792 114.077 87.6993C114.113 87.5583 115.502 87.6134 117.028 88.151C117.316 88.2525 118.62 88.7275 120.279 90.0187C121.608 91.0532 121.429 91.2606 122.263 91.8571C124.821 93.6881 127.221 92.245 128.605 93.9621C129.14 94.6248 129.368 95.5657 129.143 96.3265C128.691 97.8543 126.495 98.3801 125.295 98.6515C122.405 99.3053 120.217 98.7716 117.933 98.3878C110.164 97.0828 105.799 98.2714 105.215 96.4771C105.104 96.1375 105.284 96.1665 105.883 93.6744C106.474 91.2148 106.455 90.5393 106.958 90.3424C107.716 90.0459 108.225 91.3945 110.134 91.8561C111.826 92.2651 113.222 91.6401 113.646 91.4504Z" fill="#2F2E41"/>
<path d="M100.555 119.087L98.3082 106.6L91.8209 107.98L92.4021 118.889L97.4178 123.188L100.555 119.087Z" fill="#A0616A"/>
<path d="M68.1239 76.5798C68.53 76.9066 69.7118 78.1051 71.5072 78.2725C72.7324 78.3867 73.6853 77.9687 73.9973 77.8419C77.8687 76.2683 88.2748 76.7705 95.0667 80.9632C96.6047 81.9126 97.4716 82.7514 98.0498 83.8218C98.8698 85.3395 98.7334 86.6267 98.8373 89.9284C98.8942 91.7345 99.0926 93.5339 99.1653 95.3394C99.5912 105.91 101.193 107.801 99.4547 109.921C97.5257 112.273 93.1994 112.816 91.5856 111.324C90.9247 110.713 90.9871 110.008 90.7063 108.307C89.8831 103.319 88.3065 103.071 87.8319 99.3557C87.2778 95.018 89.1235 92.981 87.93 92.0466C86.8231 91.1801 85.023 92.7653 80.8075 93.6368C78.8785 94.0357 77.7061 94.0241 74.0851 94.0612C59.9839 94.2056 59.5137 94.5681 57.2188 93.7879C56.2148 93.4465 49.0886 91.0238 48.7273 86.9624C48.1618 80.6069 64.4645 73.6348 68.1239 76.5798H68.1239Z" fill="#2F2E41"/>
<path d="M97.1503 119.262C97.8564 119.386 98.682 119.531 99.329 119.017C99.7668 118.669 100.057 118.072 100.028 117.504C99.9948 116.848 99.5474 116.462 99.6192 116.399C99.7287 116.303 100.848 117.126 101.807 118.425C101.988 118.67 102.8 119.793 103.445 121.79C103.962 123.39 103.697 123.462 104.051 124.422C105.137 127.369 107.935 127.519 108.114 129.715C108.182 130.562 107.841 131.468 107.226 131.972C105.992 132.983 103.879 132.189 102.733 131.742C99.9732 130.665 98.4636 128.998 96.7896 127.402C91.0964 121.973 86.8151 120.513 87.3423 118.701C87.4421 118.358 87.5745 118.483 89.4738 116.756C91.3484 115.052 91.7128 114.482 92.2404 114.601C93.0346 114.78 92.696 116.181 94.0159 117.632C95.1855 118.917 96.6928 119.182 97.1503 119.262Z" fill="#2F2E41"/>
<path d="M49.9167 33.2109C50.2528 32.0121 49.8306 31.5752 50.261 31.0371C50.261 31.0371 50.4341 30.8206 51.9824 30.2363C51.5256 27.594 51.8676 27.1472 51.8676 27.1472C52.2618 26.6323 53.0515 26.5078 53.5891 26.5752C54.726 26.7176 54.9273 27.7422 55.6548 27.7193C56.6598 27.6875 57.8651 25.682 57.491 23.9437C57.1858 22.5258 55.8699 21.4728 55.54 21.6556C55.213 21.8367 54.0356 21.0379 53.5891 21.1979C53.2841 21.3072 51.8488 21.1618 51.5234 21.3123C51.1679 21.4767 50.1501 22.5002 50.0528 22.3713C49.3765 21.4751 49.3909 21.1622 48.9986 20.9691C48.3034 20.6269 47.5475 21.2594 46.2443 21.8844C43.5628 23.1702 42.7776 22.4032 41.539 23.4861C40.9134 24.0331 40.5779 25.0786 39.9324 27.1472C39.0297 30.0401 38.5783 31.4866 39.0143 32.8677C39.4589 34.2762 40.1136 33.9696 41.08 35.9567C42.1557 38.1688 41.785 39.4545 42.8014 39.9611C43.587 40.3526 44.8495 40.1034 45.3262 39.389C46.1423 38.1659 44.0329 36.5114 44.7524 34.5838C45.194 33.4006 46.5564 32.5034 47.3919 32.7533C48.3366 33.0358 48.4062 34.7244 48.9986 34.6982C49.5059 34.6759 49.8581 33.4198 49.9167 33.2109H49.9167Z" fill="#2F2E41"/>
<path d="M43.3752 41.4484C45.1423 39.4732 52.3397 41.5175 53.0153 44.6518C53.2931 45.941 52.2674 46.4853 52.5562 47.9697C52.9787 50.1408 55.371 49.9928 57.1467 52.2028C59.6677 55.3405 57.0706 58.4076 59.901 63.6438C60.5058 64.7627 61.0156 65.7058 62.0815 66.6184C64.5274 68.7128 66.8037 67.9946 68.0491 69.9363C68.9805 71.3884 68.5978 73.1782 68.5082 73.5974C68.1406 75.3166 67.1444 75.7355 66.4424 77.1441C65.2745 79.4878 66.5969 81.2085 66.672 84.0087C66.7659 87.5123 64.8983 92.3689 61.1634 93.9623C56.9673 95.7525 51.9066 92.7875 49.4576 89.8436C47.9963 88.0869 47.5722 86.4664 46.9329 84.4663C44.0757 75.5273 42.4616 76.3358 40.2767 69.2499C37.7789 61.1494 37.2879 51.6592 40.2767 48.6562C40.6728 48.2581 41.763 47.3381 42.4571 45.6815C43.3912 43.4523 42.5843 42.3325 43.3752 41.4484L43.3752 41.4484Z" fill="#E6E6E6"/>
<path d="M69.4846 87.4273C70.8546 89.1626 71.067 91.2739 69.9591 92.1429C68.8512 93.0119 66.8428 92.3095 65.4726 90.5734C64.9157 89.8874 64.5317 89.0784 64.3527 88.2141L58.6412 80.7885L61.5924 78.5443L67.4471 85.7869C68.2479 86.1636 68.9466 86.7261 69.4846 87.4273H69.4846Z" fill="#A0616A"/>
<path d="M48.567 48.9759C48.8212 48.9193 51.0449 48.4597 52.7931 49.8085C54.8013 51.358 54.704 54.1534 54.6699 55.1339C54.5911 57.3988 53.7008 57.7682 53.1712 59.9898C52.1803 64.1462 54.0674 68.009 55.1099 70.143C55.4708 70.8817 56.6302 73.142 58.9381 75.5763C63.4266 80.3107 67.4316 82.8019 67.4316 82.8019L63.1291 86.6145C63.1291 86.6145 56.2759 84.5321 51.6321 80.3599C46.8687 76.0802 39.5433 60.9379 38.0248 57.2494C37.894 56.9317 39.7465 62.096 43.2834 54.5307C44.0902 52.8051 45.5684 49.6434 48.567 48.9759H48.567Z" fill="#E6E6E6"/>
<path d="M107.558 165.057C104.824 165.475 102.823 167.22 103.09 168.955C103.357 170.69 105.791 171.757 108.526 171.339C109.621 171.187 110.664 170.775 111.567 170.139L123.131 168.223L122.359 163.666L110.821 165.293C109.768 164.956 108.649 164.875 107.558 165.057Z" fill="#FFB6B6"/>
<path d="M157.393 150.852L152.908 160.338L130.366 167.903L111.66 168.898L111.192 164.419L131.464 160.193L152.267 150.393L157.393 150.852Z" fill="#E6E6E6"/>
<path d="M115.816 186.871L111.79 197.022L106.58 193.481L109.658 182.857L115.816 186.871Z" fill="#FFB6B6"/>
<path d="M99.0018 183.093L88.345 193.245L92.6077 197.731L103.501 189.231L99.0018 183.093Z" fill="#FFB6B6"/>
<path d="M159.39 150.041L159.271 149.214L156.548 143.902L147.549 146.263L149.207 153.582L159.39 150.041Z" fill="#FFB6B6"/>
<path d="M155.601 185.454L155.878 189C155.878 189 157.022 203.869 147.786 205.049C138.55 206.23 134.524 207.41 129.077 198.203L120.552 183.093L115.572 189L108.948 183.801C108.948 183.801 113.684 165.386 117.473 164.678C117.947 164.59 118.421 164.545 118.887 164.536C122.024 164.471 124.981 166 126.858 168.507L137.603 182.857L141.51 181.086L155.601 185.454Z" fill="#2F2E41"/>
<path d="M104.449 196.55L106.58 192.537L112.737 196.786C112.737 196.786 114.158 201.98 112.027 202.688C109.895 203.397 103.975 202.452 103.975 202.452C103.975 202.452 93.0813 204.813 92.8445 202.688C92.6077 200.564 97.8176 200.091 97.8176 200.091L104.449 196.55Z" fill="#2F2E41"/>
<path d="M127.656 193.717L111.198 183.378L102.791 190.884L97.1072 184.274C97.1072 184.274 107.527 168.928 110.606 168.22C113.684 167.511 118.657 167.039 118.657 167.039L133.814 180.968L127.656 193.717V193.717Z" fill="#2F2E41"/>
<path d="M88.1082 192.301L93.555 198.203L92.8367 198.815C92.8367 198.815 91.4236 204.951 88.1082 202.875C84.7928 200.8 84.556 200.328 84.556 200.328C84.556 200.328 75.0833 202.452 74.136 198.675C73.1888 194.898 75.7937 195.606 75.7937 195.606L78.1591 197.022L88.1082 192.301H88.1082Z" fill="#2F2E41"/>
<path d="M150.391 148.86C154.576 148.86 157.969 145.478 157.969 141.305C157.969 137.133 154.576 133.751 150.391 133.751C146.206 133.751 142.813 137.133 142.813 141.305C142.813 145.478 146.206 148.86 150.391 148.86Z" fill="#FFB6B6"/>
<path d="M148.615 152.047L159.508 148.742C159.508 148.742 163.771 158.658 163.061 163.144C162.35 167.629 155.878 189 155.878 189L141.51 181.086C141.51 181.086 141.273 176.365 140.563 174.24C139.853 172.115 137.603 165.623 142.576 160.192C147.549 154.762 148.615 152.047 148.615 152.047V152.047Z" fill="#E6E6E6"/>
<path d="M124.639 201.622C122.866 203.739 122.525 206.367 123.877 207.492C125.228 208.617 127.761 207.811 129.534 205.693C130.254 204.857 130.763 203.86 131.017 202.788L138.415 193.721L134.812 190.814L127.242 199.647C126.228 200.088 125.336 200.766 124.639 201.622V201.622Z" fill="#FFB6B6"/>
<path d="M156.971 156.811L159.545 166.978L146.943 187.089L134.078 199.979L129.909 196.53L142.883 180.436L152.718 159.7L156.971 156.811Z" fill="#E6E6E6"/>
<path d="M143.405 140.007C145.348 140.002 145.459 140.015 145.773 140.007C148.183 139.944 148.814 138.998 150.036 139.063C152.216 139.178 149.338 150.078 148.141 155.117C146.967 160.059 150.935 164.487 151.22 164.796C155.247 169.162 162.32 169.961 163.534 168.101C164.517 166.597 161.035 164.308 161.876 161.019C162.699 157.803 166.498 158.146 167.56 155.117C168.672 151.944 164.935 150.344 162.587 142.604C161.238 138.159 161.477 137.33 160.219 134.577C156.855 127.217 140.37 130.351 142.221 137.174C142.579 138.494 141.626 140.011 143.405 140.007Z" fill="#2F2E41"/>
<path d="M167.604 50.3214H87.9588C85.7064 50.3214 83.8741 48.4946 83.8741 46.2493V4.07215C83.8741 1.82689 85.7064 0 87.9588 0H167.604C169.856 0 171.688 1.82689 171.688 4.07215V46.2493C171.688 48.4946 169.856 50.3214 167.604 50.3214Z" fill="white"/>
<path d="M167.604 50.3214H87.9588C85.7064 50.3214 83.8741 48.4946 83.8741 46.2493V4.07215C83.8741 1.82689 85.7064 0 87.9588 0H167.604C169.856 0 171.688 1.82689 171.688 4.07215V46.2493C171.688 48.4946 169.856 50.3214 167.604 50.3214ZM87.9588 0.68002C86.0826 0.68002 84.5562 2.20176 84.5562 4.07215V46.2493C84.5562 48.1197 86.0826 49.6414 87.9588 49.6414H167.604C169.48 49.6414 171.006 48.1197 171.006 46.2493V4.07215C171.006 2.20176 169.48 0.68002 167.604 0.68002H87.9588Z" fill="#3F3D56"/>
<path d="M161.456 5.10011C162.022 5.10011 162.48 4.64343 162.48 4.08009C162.48 3.51674 162.022 3.06006 161.456 3.06006C160.891 3.06006 160.433 3.51674 160.433 4.08009C160.433 4.64343 160.891 5.10011 161.456 5.10011Z" fill="#3F3D56"/>
<path d="M164.185 5.10011C164.75 5.10011 165.208 4.64343 165.208 4.08009C165.208 3.51674 164.75 3.06006 164.185 3.06006C163.62 3.06006 163.162 3.51674 163.162 4.08009C163.162 4.64343 163.62 5.10011 164.185 5.10011Z" fill="#3F3D56"/>
<path d="M166.913 5.10011C167.478 5.10011 167.937 4.64343 167.937 4.08009C167.937 3.51674 167.478 3.06006 166.913 3.06006C166.348 3.06006 165.89 3.51674 165.89 4.08009C165.89 4.64343 166.348 5.10011 166.913 5.10011Z" fill="#3F3D56"/>
<path d="M89.672 20.5706C89.3899 20.5706 89.1605 20.7993 89.1605 21.0806C89.1605 21.2177 89.2136 21.3445 89.31 21.4382C89.4073 21.5375 89.5347 21.5906 89.672 21.5906H166.231C166.513 21.5906 166.743 21.3618 166.743 21.0806C166.743 20.9434 166.69 20.8166 166.593 20.723C166.496 20.6237 166.369 20.5706 166.231 20.5706H89.672Z" fill="#E6E6E6"/>
<path d="M156.682 20.4006V21.7607H89.672C89.4845 21.7607 89.3139 21.6859 89.1912 21.5601C89.065 21.4377 88.9899 21.2677 88.9899 21.0807C88.9899 20.7066 89.2969 20.4006 89.672 20.4006H156.682Z" fill="#F7941D"/>
<path d="M165.379 17.8506H158.557C157.805 17.8506 157.193 17.2406 157.193 16.4905C157.193 15.7405 157.805 15.1305 158.557 15.1305H165.379C166.131 15.1305 166.743 15.7405 166.743 16.4905C166.743 17.2406 166.131 17.8506 165.379 17.8506Z" fill="#E6E6E6"/>
<path d="M120.7 10.7103H90.1836C89.4314 10.7103 88.8194 10.1004 88.8194 9.35027C88.8194 8.60019 89.4314 7.99023 90.1836 7.99023H120.7C121.452 7.99023 122.064 8.60019 122.064 9.35027C122.064 10.1004 121.452 10.7103 120.7 10.7103Z" fill="#E6E6E6"/>
<path d="M89.672 35.871C89.3899 35.871 89.1605 36.0997 89.1605 36.381C89.1605 36.5181 89.2136 36.645 89.31 36.7386C89.4073 36.8379 89.5347 36.891 89.672 36.891H166.231C166.513 36.891 166.743 36.6622 166.743 36.381C166.743 36.2439 166.69 36.117 166.593 36.0234C166.496 35.9241 166.369 35.871 166.231 35.871H89.672Z" fill="#E6E6E6"/>
<path d="M130.42 35.701V37.0611H89.672C89.4845 37.0611 89.3139 36.9863 89.1912 36.8605C89.065 36.7381 88.9899 36.5681 88.9899 36.3811C88.9899 36.007 89.2969 35.701 89.672 35.701H130.42Z" fill="#F7941D"/>
<path d="M165.379 33.151H158.557C157.805 33.151 157.193 32.541 157.193 31.7909C157.193 31.0409 157.805 30.4309 158.557 30.4309H165.379C166.131 30.4309 166.743 31.0409 166.743 31.7909C166.743 32.541 166.131 33.151 165.379 33.151Z" fill="#E6E6E6"/>
</g>
<defs>
<clipPath id="clip0_65_264">
<rect width="206" height="208" fill="white"/>
</clipPath>
</defs>
</svg>
