<svg width="250" height="169" viewBox="0 0 250 169" fill="none" xmlns="http://www.w3.org/2000/svg">
<g clip-path="url(#clip0_65_75)">
<path d="M250 93.047C250 93.2112 249.858 93.3443 249.682 93.3443H0V92.7498H249.682C249.858 92.7498 250 92.8829 250 93.047Z" fill="#E6E6E6"/>
<path d="M82.0967 20.855C87.3079 20.855 91.5324 16.908 91.5324 12.0391C91.5324 7.17017 87.3079 3.22314 82.0967 3.22314C76.8855 3.22314 72.661 7.17017 72.661 12.0391C72.661 16.908 76.8855 20.855 82.0967 20.855Z" fill="#FFB6B6"/>
<path d="M87.0967 22.7152L74.6768 26.0307L72.9026 29.7606L68.9104 47.5811V75.7625C68.9104 75.7625 64.0312 85.7089 66.6926 94.412C69.5374 103.715 79.5561 92.7347 87.0967 93.9878C94.6374 95.2408 106.614 96.4841 106.614 96.4841L99.5167 66.2306L97.7424 29.3461L87.0967 22.7152H87.0967Z" fill="#E6E6E6"/>
<path d="M84.7529 14.9261L82.8346 14.0299C82.8346 14.0299 82.355 9.99707 81.3958 9.10089C80.4366 8.20471 80.4366 7.75662 80.4366 7.75662L81.8754 5.96426C81.8754 5.96426 74.6815 9.54898 73.2427 7.30853C71.8039 5.06808 73.7223 4.1719 73.7223 4.1719L71.3243 2.37954C71.3243 2.37954 74.2019 4.1719 74.6815 2.82763C75.1611 1.48335 78.0386 0.571295 78.0386 0.571295C78.0386 0.571295 84.3224 1.89969 83.8183 0.571295C83.3142 -0.7571 85.2325 0.587174 85.7121 1.03526C86.1917 1.48335 90.5081 5.96426 90.9876 5.51617C91.4672 5.06808 93.8652 6.41235 93.3856 6.86044C92.906 7.30853 92.906 7.75662 93.3856 8.20471C93.8652 8.65281 96.7428 13.5818 94.3448 15.3742C91.9468 17.1665 88.5897 19.407 89.0693 21.1993C89.5489 22.9917 89.0693 15.3742 84.7529 14.9261L84.7529 14.9261Z" fill="#2F2E41"/>
<path d="M38.2394 37.1222C35.8176 35.1716 34.9317 32.423 36.2605 30.9832C37.5894 29.5434 40.6294 29.9577 43.0518 31.9093C44.0309 32.6764 44.7991 33.6515 45.2922 34.753L55.4418 43.1387L51.1284 47.5048L41.5807 38.7745C40.3417 38.4809 39.1959 37.9144 38.2394 37.1222L38.2394 37.1222Z" fill="#FFB6B6"/>
<path d="M73.009 29.9031L79.6946 29.3352L85.5578 55.4611C86.675 60.4394 83.1823 65.2996 77.8277 66.2179L73.009 67.0444L42.2963 41.779L46.7834 34.7902L69.4326 48.0645L73.009 29.9031V29.9031Z" fill="#E6E6E6"/>
<path d="M58.0831 146.088C58.0831 146.088 52.7804 155.289 53.1592 154.936C53.538 154.582 59.977 156.705 59.977 156.705L63.7646 147.504L58.0831 146.088Z" fill="#FFB6B6"/>
<path d="M50.2565 81.6827C50.2565 81.6827 47.5421 91.8204 47.8159 91.3903C48.0898 90.9602 54.8901 91.5367 54.8901 91.5367L56.1361 81.7476L50.2565 81.6827H50.2565Z" fill="#FFB6B6"/>
<path d="M97.4747 79.9782C85.4912 81.5511 74.6673 80.1797 65.8478 73.7189C65.8478 73.7189 59.4088 93.8903 71.1505 96.0137C82.8923 98.137 95.9596 94.4875 97.4747 90.9487C98.9898 87.4098 97.4747 79.9782 97.4747 79.9782Z" fill="#2F2E41"/>
<path d="M75.1276 86.3481L62.0602 115.123L55.9999 148.389L63.954 150.158L78.1815 119.547L97.4747 90.2409L75.1276 86.3481Z" fill="#2F2E41"/>
<path d="M73.4232 78.1424C73.4232 78.1424 70.393 56.2015 64.7116 54.7859C61.9418 54.0959 59.3521 54.1627 57.4252 54.4125C55.483 54.6643 53.9347 56.0506 53.5951 57.8549L48.4321 85.2865H55.733L58.0832 77.8549L64.3328 88.0512L73.4232 78.1424V78.1424Z" fill="#2F2E41"/>
<path d="M54.8637 88.7589L47.6448 88.0512L46.5308 91.9439C46.5308 91.9439 34.7891 101.853 40.8494 102.56C46.9096 103.268 52.5911 99.3755 52.5911 99.3755L60.9276 94.9073C60.9276 94.9073 57.7044 86.8789 55.4318 86.8789C53.1592 86.8789 54.8637 88.7589 54.8637 88.7589Z" fill="#2F2E41"/>
<path d="M58.6513 155.112L51.4324 154.405L50.3185 158.297C50.3185 158.297 38.5768 168.206 44.637 168.914C50.6973 169.622 56.3787 165.729 56.3787 165.729L64.7153 161.261C64.7153 161.261 64.1434 152.879 61.8708 152.879C59.5982 152.879 58.6513 155.112 58.6513 155.112Z" fill="#2F2E41"/>
<path d="M95.203 101.54C94.3326 104.329 92.0868 106.17 90.1871 105.652C88.2874 105.134 87.4534 102.454 88.3245 99.664C88.6562 98.545 89.2697 97.5165 90.114 96.6646L93.9617 84.8905L99.8368 86.6953L95.42 98.1108C95.6418 99.2536 95.5674 100.429 95.203 101.54Z" fill="#FFB6B6"/>
<path d="M99.2696 29.3973L96.2061 28.5901V28.5901C93.3174 33.9601 92.0752 39.9721 92.6171 45.9609L94.1291 62.6714L89.1402 92.0431L98.9184 94.4067L106.624 57.5466L99.2696 29.3974V29.3973Z" fill="#E6E6E6"/>
<path d="M39.6292 75.3195C39.4951 74.9359 38.4783 75.1048 38.3807 74.7617C38.2834 74.4199 39.2591 74.1333 40.0074 73.1699C40.1423 72.9962 40.9927 71.9015 40.6666 71.441C40.0484 70.5682 35.7471 72.742 34.7146 71.5221C34.4881 71.2544 34.3948 70.7949 33.7198 69.9396C33.4513 69.5993 33.279 69.4351 33.0732 69.4399C32.7811 69.4468 32.6766 69.7882 32.2175 70.4066C31.5291 71.334 31.2806 71.2176 30.8271 71.9775C30.4904 72.5416 30.4505 72.902 30.2078 72.9233C29.8642 72.9533 29.7222 72.251 29.3024 72.2238C28.8741 72.196 28.4454 72.8899 28.2329 73.4321C27.8341 74.4496 28.081 75.2273 28.1358 76.0023C28.1953 76.8446 28.0556 78.0775 27.0761 79.66L17.8374 93.4127C19.8215 90.6091 25.4536 82.9639 27.7228 80.1597C28.3778 79.3501 29.0818 78.5372 30.1653 78.3843C31.2084 78.2371 32.4777 78.7193 34.2493 78.6912C34.4562 78.6879 35.032 78.6719 35.172 78.3868C35.2878 78.1511 35.0003 77.9461 35.1049 77.7245C35.2452 77.4273 35.8764 77.5548 36.7366 77.3574C37.3431 77.2182 37.7552 76.9882 38.1095 76.7904C38.2164 76.7308 39.8079 75.8301 39.6293 75.3195H39.6292L39.6292 75.3195Z" fill="#F2F2F2"/>
<path d="M15.4314 78.5303C15.1912 78.4812 14.9865 78.9962 14.7781 78.942C14.5705 78.8879 14.7014 78.3578 14.4113 77.7367C14.359 77.6247 14.0293 76.9189 13.6933 76.9356C13.0564 76.9673 12.9573 79.5669 12.0186 79.6884C11.8126 79.715 11.5442 79.6252 10.9002 79.6879C10.644 79.7129 10.508 79.7445 10.4511 79.8403C10.3705 79.9762 10.5197 80.1227 10.7121 80.5116C11.0006 81.0949 10.8678 81.1752 11.1361 81.6024C11.3353 81.9196 11.5131 82.0419 11.4542 82.1593C11.3709 82.3256 10.961 82.188 10.8255 82.3727C10.6873 82.5611 10.9282 82.9579 11.1517 83.2118C11.5711 83.6882 12.0509 83.7993 12.4738 83.9979C12.9334 84.2136 13.5408 84.6334 14.0895 85.5392L18.6483 93.7438C17.748 92.025 15.3569 87.2365 14.5386 85.3868C14.3023 84.8528 14.0784 84.2955 14.3107 83.7545C14.5343 83.2337 15.1539 82.7907 15.6503 81.9702C15.7083 81.8744 15.866 81.6058 15.7566 81.4593C15.6662 81.3381 15.4756 81.4109 15.3894 81.299C15.2737 81.1489 15.5228 80.8962 15.6673 80.4448C15.7692 80.1265 15.7672 79.8712 15.7656 79.6516C15.7651 79.5854 15.7511 78.5957 15.4314 78.5303V78.5303L15.4314 78.5303Z" fill="#F2F2F2"/>
<path d="M19.9794 80.5322L20.1227 79.2961L20.2106 79.2184C20.6172 78.8594 20.8716 78.479 20.967 78.0875C20.9822 78.0253 20.994 77.9623 21.006 77.8982C21.0536 77.6441 21.1127 77.3281 21.3742 77C21.5205 76.8171 21.9077 76.4039 22.307 76.5482C22.4148 76.586 22.4875 76.6513 22.5381 76.7205C22.5508 76.7084 22.5638 76.6965 22.5776 76.6835C22.7501 76.5269 22.8708 76.4695 22.987 76.4143C23.0763 76.3717 23.1686 76.328 23.3246 76.2114C23.3931 76.1602 23.4479 76.1142 23.4941 76.0755C23.6342 75.9586 23.8135 75.8218 24.0589 75.876C24.3192 75.9424 24.4084 76.1744 24.4676 76.3279C24.5733 76.6018 24.6059 76.7901 24.6274 76.915C24.6352 76.9607 24.6442 77.012 24.651 77.0287C24.7079 77.1629 25.4229 77.1976 25.6919 77.212C26.2967 77.2427 26.8199 77.2692 26.9458 77.6561C27.0361 77.9329 26.8479 78.2347 26.3703 78.5772C26.2216 78.6837 26.0728 78.7573 25.9433 78.8122C26.023 78.8826 26.0865 78.9783 26.0903 79.1087C26.0991 79.4174 25.7602 79.6543 25.0832 79.8139C24.915 79.8541 24.6887 79.9071 24.3926 79.8937C24.2532 79.8873 24.131 79.8673 24.0269 79.8487C24.0113 79.9041 23.9829 79.9618 23.9315 80.0165C23.7808 80.1776 23.5375 80.2186 23.2072 80.1278C22.8425 80.0328 22.5544 79.9037 22.3002 79.7902C22.0781 79.6914 21.8867 79.6069 21.726 79.5838C21.4272 79.5447 21.1485 79.7171 20.815 79.9465L19.9794 80.5322H19.9794L19.9794 80.5322Z" fill="#F2F2F2"/>
<path d="M22.3642 73.4918L21.0482 73.6758L20.9455 73.6161C20.4706 73.3396 20.0123 73.2062 19.5828 73.2193C19.5145 73.2214 19.4463 73.2267 19.3769 73.2321C19.1017 73.2536 18.7596 73.2803 18.3535 73.1272C18.1271 73.0413 17.6011 72.7962 17.6493 72.3987C17.661 72.2917 17.7101 72.2094 17.769 72.1462C17.7533 72.1378 17.7376 72.1291 17.7206 72.1198C17.5148 72.0037 17.4247 71.9092 17.3381 71.8181C17.2714 71.7482 17.2027 71.676 17.0424 71.5645C16.9721 71.5156 16.9105 71.4777 16.8588 71.4458C16.7022 71.3488 16.515 71.2215 16.5089 70.9859C16.5117 70.7339 16.7292 70.5944 16.8731 70.502C17.1299 70.337 17.3166 70.2598 17.4404 70.2086C17.4857 70.19 17.5366 70.1689 17.5522 70.1585C17.6766 70.073 17.5312 69.418 17.4779 69.1712C17.3563 68.6169 17.251 68.1372 17.6196 67.9254C17.8833 67.7736 18.2435 67.8671 18.7192 68.2118C18.8672 68.3193 18.9811 68.435 19.0708 68.5382C19.1235 68.4483 19.2065 68.3666 19.3405 68.3301C19.6579 68.2439 19.989 68.49 20.3261 69.0613C20.4103 69.2032 20.5226 69.3942 20.5839 69.6653C20.6126 69.7929 20.6229 69.9084 20.63 70.0073C20.6913 70.0072 20.7582 70.0183 20.8279 70.0509C21.033 70.1462 21.1371 70.3557 21.1268 70.6772C21.121 71.0309 21.0605 71.324 21.0074 71.5826C20.9614 71.8083 20.9225 72.0028 20.9393 72.1539C20.9747 72.4338 21.2239 72.642 21.546 72.8851L22.3643 73.4918H22.3642L22.3642 73.4918Z" fill="#F2F2F2"/>
<path d="M22.5416 69.7992L22.6849 68.5631L22.7728 68.4854C23.1794 68.1264 23.4338 67.746 23.5292 67.3545C23.5444 67.2922 23.5562 67.2293 23.5682 67.1652C23.6158 66.911 23.6748 66.5951 23.9364 66.2669C24.0827 66.0841 24.4699 65.6709 24.8692 65.8152C24.977 65.8529 25.0497 65.9182 25.1003 65.9874C25.1129 65.9754 25.1259 65.9634 25.1398 65.9505C25.3123 65.7938 25.433 65.7365 25.5492 65.6812C25.6385 65.6387 25.7308 65.595 25.8868 65.4783C25.9553 65.4272 26.0101 65.3812 26.0563 65.3425C26.1964 65.2256 26.3757 65.0887 26.6211 65.143C26.8814 65.2094 26.9706 65.4413 27.0298 65.5949C27.1355 65.8687 27.1681 66.0571 27.1896 66.182C27.1973 66.2276 27.2063 66.279 27.2132 66.2957C27.2701 66.4298 27.9851 66.4645 28.2541 66.479C28.8589 66.5097 29.3821 66.5362 29.508 66.9231C29.5983 67.1998 29.4101 67.5017 28.9325 67.8442C28.7838 67.9507 28.635 68.0242 28.5055 68.0791C28.5852 68.1495 28.6486 68.2453 28.6525 68.3757C28.6613 68.6844 28.3224 68.9212 27.6454 69.0809C27.4772 69.121 27.2509 69.1741 26.9548 69.1607C26.8154 69.1543 26.6932 69.1343 26.5891 69.1157C26.5735 69.1711 26.545 69.2287 26.4937 69.2835C26.343 69.4446 26.0997 69.4856 25.7694 69.3947C25.4047 69.2998 25.1166 69.1707 24.8624 69.0572C24.6403 68.9583 24.4488 68.8738 24.2882 68.8507C23.9894 68.8117 23.7107 68.9841 23.3772 69.2135L22.5416 69.7992H22.5416L22.5416 69.7992Z" fill="#F2F2F2"/>
<path d="M18.2742 93.483L18.0415 93.2682L18.0457 92.9629L18.0415 93.2682L17.7181 93.2363C17.7196 93.2079 17.7175 93.1414 17.7151 93.0376C17.7027 92.469 17.6641 90.7384 17.922 88.0793C18.1021 86.2231 18.403 84.339 18.8165 82.4782C19.2306 80.6146 19.6604 79.2279 20.0057 78.1134C20.2662 77.2728 20.5292 76.4755 20.7859 75.6988C21.4709 73.6239 22.1178 71.6639 22.5183 69.4282C22.608 68.9292 22.7942 67.8903 22.413 66.6641C22.1919 65.953 21.8132 65.2836 21.2872 64.6752L21.7963 64.291C22.3768 64.9633 22.7955 65.7047 23.0411 66.4943C23.4637 67.8538 23.2609 68.9857 23.1634 69.5296C22.7557 71.8048 22.1024 73.7837 21.4106 75.8786C21.1552 76.6524 20.8931 77.4462 20.6337 78.2834C20.2916 79.3876 19.8657 80.7622 19.4569 82.6019C19.0481 84.4404 18.751 86.3015 18.5729 88.1343C18.3184 90.7598 18.3567 92.4647 18.3692 93.0248C18.3756 93.3238 18.377 93.3865 18.2742 93.483L18.2742 93.483Z" fill="#F2F2F2"/>
<path d="M19.8906 65.3787C19.8644 65.3732 19.8381 65.3671 19.8117 65.3598C19.2747 65.2192 18.844 64.8103 18.5312 64.1449C18.3848 63.8319 18.3502 63.5026 18.2813 62.8458C18.2705 62.7445 18.2227 62.2321 18.2814 61.553C18.3196 61.1092 18.3707 60.931 18.4999 60.791C18.6435 60.6351 18.8369 60.5458 19.0412 60.501C19.0467 60.4422 19.0673 60.3848 19.1081 60.3303C19.2762 60.1044 19.5576 60.1972 19.7103 60.2456C19.7873 60.2714 19.8831 60.3042 19.9909 60.3211C20.1604 60.3485 20.2616 60.3207 20.4147 60.2793C20.5613 60.2395 20.7435 60.1901 20.9954 60.1943C21.4924 60.2006 21.8603 60.4093 21.9816 60.478C22.6206 60.8367 22.8412 61.409 23.0965 62.0716C23.1472 62.2045 23.3156 62.6845 23.3548 63.3028C23.3831 63.7488 23.3205 63.9313 23.2488 64.0619C23.1023 64.3303 22.878 64.4547 22.3212 64.7164C21.7395 64.9907 21.4477 65.1279 21.2084 65.1985C20.6516 65.3618 20.3019 65.4644 19.8906 65.3787V65.3787Z" fill="#F2F2F2"/>
<path d="M169.207 13.64C169.207 13.64 172.819 15.6192 171.634 17.5766C170.45 19.5339 168.798 22.2 169.919 23.0397C171.039 23.8794 172.889 27.5815 172.889 27.5815C172.889 27.5815 180.784 26.5511 180.043 32.2814C179.302 38.0117 175.593 38.793 178.772 41.3139C181.951 43.8348 175.468 46.8498 175.468 46.8498C175.468 46.8498 170.992 45.5466 169.971 41.5392C168.95 37.5317 170.881 44.6033 170.233 45.1104C169.585 45.6174 167.07 48.9596 165.291 44.516C163.511 40.0724 165.273 38.3495 162.921 35.7269C160.57 33.1044 158.971 28.8625 159.041 28.121C159.111 27.3795 156.351 20.6132 160.599 17.9744C164.848 15.3356 169.207 13.64 169.207 13.64V13.64Z" fill="#2F2E41"/>
<path d="M204.787 75.8139C206.884 77.4356 209.479 77.7391 210.584 76.4919C211.688 75.2447 210.883 72.9195 208.785 71.2975C207.956 70.6388 206.971 70.1752 205.911 69.9453L196.932 63.179L193.624 67.1834L202.827 73.4286C203.267 74.3586 203.939 75.1765 204.787 75.8139Z" fill="#FFB6B6"/>
<path d="M177.876 38.9124C177.876 38.9124 170.83 34.5096 168.523 36.6685C166.215 38.8274 166.766 44.2197 166.766 44.2197L185.245 64.3403L199.897 73.0422L203.826 67.2941L191.507 57.024L177.876 38.9124V38.9124Z" fill="#3F3D56"/>
<path d="M167.548 29.3753L170.104 37.8657H156.072L160.693 27.4042L167.548 29.3753Z" fill="#FFB6B6"/>
<path opacity="0.1" d="M167.548 29.3753L170.104 37.8657H156.072L160.693 27.4042L167.548 29.3753Z" fill="black"/>
<path d="M136.946 92.0631C136.765 94.601 138.02 96.7455 139.749 96.8529C141.477 96.9603 143.025 94.9903 143.206 92.4515C143.293 91.4383 143.119 90.4203 142.699 89.4827L143.321 78.7207L137.909 78.5555L137.871 89.1825C137.321 90.06 137.004 91.0478 136.946 92.0631Z" fill="#FFB6B6"/>
<path d="M153.241 50.0859C153.241 50.0859 152.942 42.1708 149.718 41.685C146.494 41.1991 142.135 44.7707 142.135 44.7707L135.477 70.5426L136.492 86.7363L143.781 86.3517L145.491 71.0094L153.241 50.0859V50.0859Z" fill="#3F3D56"/>
<path d="M184.497 144.673C184.497 144.673 189.8 153.874 189.421 153.52C189.043 153.166 182.604 155.289 182.604 155.289L178.816 146.088L184.497 144.673Z" fill="#FFB6B6"/>
<path d="M192.324 80.2672C192.324 80.2672 195.039 90.4049 194.765 89.9748C194.491 89.5446 187.69 90.1212 187.69 90.1212L186.444 80.332L192.324 80.2672Z" fill="#FFB6B6"/>
<path d="M171.241 35.0347H158.002L143.591 44.2357L139.424 76.4393L141.697 82.8092L145.863 90.2408C145.863 90.2408 141.697 73.9621 151.924 80.332C162.15 86.702 162.908 87.7636 162.908 87.7636L176.543 81.3937L181.657 55.0292L177.869 40.5199L171.241 35.0347Z" fill="#3F3D56"/>
<path d="M145.106 78.5626C157.089 80.1354 167.913 78.7641 176.733 72.3032C176.733 72.3032 183.172 92.4747 171.43 94.598C159.688 96.7213 146.621 93.0719 145.106 89.533C143.591 85.9942 145.106 78.5626 145.106 78.5626Z" fill="#2F2E41"/>
<path d="M167.453 84.9325L180.52 113.708L186.581 146.973L178.627 148.742L164.399 118.131L145.106 88.8252L167.453 84.9325Z" fill="#2F2E41"/>
<path d="M169.157 76.7269C169.157 76.7269 172.188 54.786 177.869 53.3704C180.639 52.6803 183.229 52.7472 185.155 52.997C187.098 53.2487 188.646 54.6351 188.986 56.4394L194.148 83.8709H186.848L184.497 76.4393L178.248 86.6357L169.157 76.7269V76.7269Z" fill="#2F2E41"/>
<path d="M187.717 87.3434L194.936 86.6356L196.05 90.5284C196.05 90.5284 207.791 100.437 201.731 101.145C195.671 101.853 189.99 97.96 189.99 97.96L181.653 93.4918C181.653 93.4918 184.876 85.4634 187.149 85.4634C189.421 85.4634 187.717 87.3434 187.717 87.3434Z" fill="#2F2E41"/>
<path d="M183.929 153.697L191.148 152.989L192.262 156.882C192.262 156.882 204.004 166.791 197.944 167.498C191.883 168.206 186.202 164.313 186.202 164.313L177.865 159.845C177.865 159.845 178.437 151.463 180.71 151.463C182.982 151.463 183.929 153.697 183.929 153.697Z" fill="#2F2E41"/>
<path d="M164.214 31.2204C168.881 31.2204 172.664 27.6855 172.664 23.325C172.664 18.9645 168.881 15.4296 164.214 15.4296C159.547 15.4296 155.763 18.9645 155.763 23.325C155.763 27.6855 159.547 31.2204 164.214 31.2204Z" fill="#FFB6B6"/>
<path d="M167.453 14.5083C167.453 14.5083 168.862 18.1928 166.608 18.9824C164.355 19.7719 161.256 20.8246 161.538 22.1405C161.82 23.4565 160.693 27.4042 160.693 27.4042C160.693 27.4042 167.453 31.3519 162.946 35.2996C158.439 39.2473 155.059 37.6205 155.763 41.4605C156.468 45.3004 149.426 43.7213 149.426 43.7213C149.426 43.7213 146.89 40.0368 148.862 36.3523C150.834 32.6678 147.454 39.2473 146.609 39.2473C145.764 39.2473 141.538 40.3 143.228 35.8259C144.919 31.3519 147.454 31.0887 147.454 27.6673C147.454 24.246 149.144 20.0351 149.707 19.5087C150.271 18.9824 152.806 12.1397 157.876 12.6661C162.946 13.1924 167.453 14.5083 167.453 14.5083Z" fill="#2F2E41"/>
<path d="M93.5938 144.673C93.5938 144.673 88.2911 153.874 88.6699 153.52C89.0486 153.166 95.4876 155.289 95.4876 155.289L99.2753 146.088L93.5938 144.673Z" fill="#A0616A"/>
<path d="M132.985 78.5626C121.002 80.1354 110.178 78.7641 101.359 72.3032C101.359 72.3032 94.9195 92.4747 106.661 94.598C118.403 96.7213 131.47 93.0719 132.985 89.533C134.5 85.9942 132.985 78.5626 132.985 78.5626Z" fill="#2F2E41"/>
<path d="M110.638 84.9325L97.5709 113.708L91.5106 146.973L99.4647 148.742L113.692 118.131L132.985 88.8252L110.638 84.9325Z" fill="#2F2E41"/>
<path d="M94.162 153.697L86.9431 152.989L85.8292 156.882C85.8292 156.882 74.0875 166.791 80.1477 167.498C86.2079 168.206 91.8894 164.313 91.8894 164.313L100.226 159.845C100.226 159.845 99.6541 151.463 97.3815 151.463C95.1089 151.463 94.162 153.697 94.162 153.697Z" fill="#2F2E41"/>
<path d="M105.567 139.832C105.567 139.832 103.561 150.113 103.805 149.667C104.048 149.221 110.874 149.385 110.874 149.385L111.439 139.541L105.567 139.832Z" fill="#A0616A"/>
<path d="M102.054 78.0927L99.1259 109.231L104.345 142.62L112.496 142.011L115.922 108.792L124.597 75.3542L102.054 78.0927Z" fill="#2F2E41"/>
<path d="M109.087 148.252L101.987 149.66L102.213 153.684C102.213 153.684 94.3155 166.493 100.314 165.42C106.312 164.346 110.431 159.006 110.431 159.006L116.886 152.353C116.886 152.353 113.574 144.544 111.412 145.199C109.25 145.854 109.087 148.252 109.087 148.252Z" fill="#2F2E41"/>
<path d="M108.884 13.64C108.884 13.64 105.272 15.6192 106.457 17.5766C107.642 19.5339 109.293 22.2 108.173 23.0397C107.052 23.8794 105.202 27.5815 105.202 27.5815C105.202 27.5815 97.307 26.5511 98.0482 32.2814C98.7894 38.0117 102.499 38.793 99.3194 41.3139C96.1402 43.8348 102.624 46.8498 102.624 46.8498C102.624 46.8498 107.099 45.5466 108.121 41.5392C109.142 37.5317 107.21 44.6033 107.858 45.1104C108.506 45.6174 111.021 48.9596 112.801 44.516C114.58 40.0724 112.818 38.3495 115.17 35.7269C117.521 33.1044 119.12 28.8625 119.05 28.121C118.98 27.3795 121.74 20.6132 117.492 17.9744C113.244 15.3356 108.884 13.64 108.884 13.64V13.64Z" fill="#2F2E41"/>
<path d="M110.544 29.3753L107.987 37.8657H122.019L117.398 27.4042L110.544 29.3753Z" fill="#A0616A"/>
<path opacity="0.1" d="M110.544 29.3753L107.987 37.8657H122.019L117.398 27.4042L110.544 29.3753Z" fill="black"/>
<path d="M141.145 92.0631C141.326 94.601 140.071 96.7455 138.343 96.8529C136.614 96.9603 135.066 94.9903 134.886 92.4515C134.798 91.4383 134.972 90.4203 135.392 89.4827L134.77 78.7207L140.182 78.5555L140.221 89.1825C140.771 90.06 141.088 91.0478 141.145 92.0631H141.145Z" fill="#A0616A"/>
<path d="M124.85 50.0859C124.85 50.0859 125.149 42.1708 128.373 41.685C131.597 41.1991 135.956 44.7707 135.956 44.7707L142.615 70.5426L141.599 86.7363L134.311 86.3517L132.6 71.0094L124.85 50.0859V50.0859Z" fill="#F7941D"/>
<path d="M106.851 35.0347H120.089L134.5 44.2357L138.667 76.4393L136.394 82.8092L132.228 90.2408C132.228 90.2408 136.394 73.9621 126.168 80.332C126.065 80.3957 125.964 80.4589 125.864 80.5215C119.281 84.6296 110.594 84.2079 104.5 79.4864L99.6541 75.7315L102.305 63.3455L100.222 40.5199L106.851 35.0347V35.0347Z" fill="#F7941D"/>
<path d="M73.7235 75.3526C71.6001 76.9444 69 77.2109 67.916 75.9482C66.832 74.6855 67.6747 72.372 69.7991 70.78C70.6383 70.1332 71.6312 69.6835 72.6945 69.4687L81.7824 62.8307L85.0255 66.8816L75.7222 72.9955C75.267 73.9191 74.5816 74.7273 73.7235 75.3526V75.3526Z" fill="#A0616A"/>
<path d="M101.231 38.8375C101.231 38.8375 108.348 34.5353 110.62 36.7267C112.892 38.9181 112.253 44.302 112.253 44.302L93.45 64.1578L78.6578 72.6506L74.8228 66.8474L87.3069 56.7535L101.231 38.8375Z" fill="#F7941D"/>
<path d="M113.877 31.2204C118.544 31.2204 122.328 27.6855 122.328 23.325C122.328 18.9645 118.544 15.4296 113.877 15.4296C109.21 15.4296 105.427 18.9645 105.427 23.325C105.427 27.6855 109.21 31.2204 113.877 31.2204Z" fill="#A0616A"/>
<path d="M109.671 18.0327C109.671 18.0327 108.426 14.1554 110.501 14.1554C112.575 14.1554 120.875 14.5431 121.705 15.3186C122.535 16.094 132.356 23.8766 126.546 30.0802C120.737 36.2839 126.546 39.2813 126.546 39.2813C126.546 39.2813 130.835 48.663 126.685 49.4385C122.535 50.2139 105.513 45.7799 109.671 38.5821C114.183 30.7711 116.282 18.4425 109.671 18.0327L109.671 18.0327Z" fill="#2F2E41"/>
<path d="M247.95 75.6734C247.816 75.2898 246.799 75.4587 246.701 75.1156C246.604 74.7738 247.58 74.4871 248.328 73.5238C248.463 73.3501 249.313 72.2553 248.987 71.7949C248.369 70.9221 244.068 73.0959 243.035 71.876C242.809 71.6083 242.715 71.1488 242.04 70.2935C241.772 69.9532 241.6 69.7889 241.394 69.7938C241.102 69.8007 240.997 70.1421 240.538 70.7605C239.85 71.6879 239.601 71.5715 239.148 72.3314C238.811 72.8955 238.771 73.2559 238.528 73.2772C238.185 73.3072 238.043 72.6049 237.623 72.5777C237.195 72.5499 236.766 73.2438 236.554 73.786C236.155 74.8035 236.402 75.5812 236.456 76.3562C236.516 77.1985 236.376 78.4314 235.397 80.0139L226.158 93.7665C228.142 90.9629 233.774 83.3178 236.043 80.5135C236.698 79.704 237.402 78.8911 238.486 78.7382C239.529 78.591 240.798 79.0732 242.57 79.0451C242.777 79.0418 243.353 79.0258 243.493 78.7407C243.608 78.5049 243.321 78.3 243.426 78.0784C243.566 77.7812 244.197 77.9087 245.057 77.7113C245.664 77.5721 246.076 77.3421 246.43 77.1443C246.537 77.0847 248.128 76.1839 247.95 75.6734V75.6734Z" fill="#F2F2F2"/>
<path d="M223.752 78.8842C223.512 78.8351 223.307 79.3501 223.099 79.2958C222.891 79.2418 223.022 78.7117 222.732 78.0906C222.68 77.9786 222.35 77.2728 222.014 77.2895C221.377 77.3211 221.278 79.9207 220.339 80.0422C220.133 80.0689 219.865 79.9791 219.221 80.0418C218.965 80.0668 218.829 80.0984 218.772 80.1942C218.691 80.3301 218.84 80.4765 219.033 80.8655C219.321 81.4488 219.188 81.5291 219.457 81.9563C219.656 82.2735 219.834 82.3958 219.775 82.5132C219.692 82.6794 219.282 82.5419 219.146 82.7265C219.008 82.915 219.249 83.3118 219.472 83.5656C219.892 84.0421 220.372 84.1532 220.795 84.3517C221.254 84.5675 221.862 84.9873 222.41 85.8931L226.969 94.0977C226.069 92.3789 223.678 87.5904 222.859 85.7407C222.623 85.2067 222.399 84.6494 222.631 84.1084C222.855 83.5875 223.475 83.1446 223.971 82.3241C224.029 82.2283 224.187 81.9596 224.077 81.8131C223.987 81.692 223.796 81.7647 223.71 81.6528C223.594 81.5027 223.843 81.2501 223.988 80.7987C224.09 80.4804 224.088 80.2251 224.086 80.0055C224.086 79.9393 224.072 78.9496 223.752 78.8842V78.8842V78.8842Z" fill="#F2F2F2"/>
<path d="M228.3 80.8861L228.443 79.65L228.531 79.5723C228.938 79.2133 229.192 78.8329 229.288 78.4414C229.303 78.3792 229.315 78.3162 229.327 78.2521C229.374 77.9979 229.433 77.682 229.695 77.3538C229.841 77.171 230.228 76.7578 230.628 76.9021C230.735 76.9399 230.808 77.0051 230.859 77.0743C230.871 77.0623 230.884 77.0504 230.898 77.0374C231.071 76.8808 231.191 76.8234 231.308 76.7681C231.397 76.7256 231.489 76.6819 231.645 76.5653C231.714 76.5141 231.769 76.4681 231.815 76.4294C231.955 76.3125 232.134 76.1757 232.38 76.2299C232.64 76.2963 232.729 76.5283 232.788 76.6818C232.894 76.9557 232.927 77.144 232.948 77.2689C232.956 77.3145 232.965 77.3659 232.972 77.3826C233.029 77.5167 233.744 77.5514 234.013 77.5659C234.617 77.5966 235.141 77.6231 235.266 78.01C235.357 78.2868 235.169 78.5886 234.691 78.9311C234.542 79.0376 234.394 79.1111 234.264 79.166C234.344 79.2364 234.407 79.3322 234.411 79.4626C234.42 79.7713 234.081 80.0081 233.404 80.1678C233.236 80.2079 233.009 80.261 232.713 80.2476C232.574 80.2412 232.452 80.2212 232.348 80.2026C232.332 80.258 232.304 80.3157 232.252 80.3704C232.102 80.5315 231.858 80.5725 231.528 80.4817C231.163 80.3867 230.875 80.2576 230.621 80.1441C230.399 80.0453 230.207 79.9607 230.047 79.9376C229.748 79.8986 229.469 80.071 229.136 80.3004L228.3 80.8861H228.3V80.8861Z" fill="#F2F2F2"/>
<path d="M230.685 73.8456L229.369 74.0297L229.266 73.9699C228.791 73.6935 228.333 73.5601 227.903 73.5732C227.835 73.5753 227.767 73.5806 227.698 73.586C227.422 73.6074 227.08 73.6342 226.674 73.4811C226.448 73.3952 225.922 73.1501 225.97 72.7526C225.982 72.6456 226.031 72.5633 226.09 72.5001C226.074 72.4917 226.058 72.483 226.041 72.4737C225.835 72.3576 225.745 72.2631 225.659 72.172C225.592 72.1021 225.523 72.0298 225.363 71.9184C225.293 71.8695 225.231 71.8316 225.179 71.7996C225.023 71.7027 224.836 71.5754 224.83 71.3398C224.832 71.0878 225.05 70.9483 225.194 70.8558C225.451 70.6908 225.637 70.6136 225.761 70.5625C225.806 70.5439 225.857 70.5227 225.873 70.5124C225.997 70.4269 225.852 69.7719 225.799 69.5251C225.677 68.9708 225.572 68.4911 225.94 68.2793C226.204 68.1275 226.564 68.221 227.04 68.5657C227.188 68.6731 227.302 68.7889 227.391 68.8921C227.444 68.8022 227.527 68.7205 227.661 68.6839C227.979 68.5977 228.31 68.8439 228.647 69.4152C228.731 69.5571 228.843 69.7481 228.905 70.0191C228.933 70.1468 228.944 70.2623 228.951 70.3611C229.012 70.3611 229.079 70.3722 229.149 70.4047C229.354 70.5 229.458 70.7096 229.448 71.0311C229.442 71.3848 229.381 71.6779 229.328 71.9364C229.282 72.1622 229.243 72.3567 229.26 72.5078C229.295 72.7877 229.545 72.9958 229.867 73.239L230.685 73.8456H230.685V73.8456Z" fill="#F2F2F2"/>
<path d="M230.862 70.153L231.006 68.917L231.093 68.8393C231.5 68.4803 231.754 68.0999 231.85 67.7084C231.865 67.6461 231.877 67.5832 231.889 67.5191C231.936 67.2649 231.996 66.949 232.257 66.6208C232.403 66.438 232.791 66.0247 233.19 66.1691C233.298 66.2068 233.37 66.2721 233.421 66.3413C233.434 66.3293 233.447 66.3173 233.461 66.3043C233.633 66.1477 233.754 66.0904 233.87 66.0351C233.959 65.9926 234.051 65.9489 234.207 65.8322C234.276 65.7811 234.331 65.7351 234.377 65.6964C234.517 65.5795 234.696 65.4426 234.942 65.4968C235.202 65.5633 235.291 65.7952 235.35 65.9488C235.456 66.2226 235.489 66.411 235.51 66.5359C235.518 66.5815 235.527 66.6329 235.534 66.6496C235.591 66.7837 236.306 66.8184 236.575 66.8329C237.18 66.8636 237.703 66.8901 237.829 67.277C237.919 67.5537 237.731 67.8556 237.253 68.198C237.104 68.3046 236.956 68.3781 236.826 68.433C236.906 68.5034 236.969 68.5992 236.973 68.7296C236.982 69.0382 236.643 69.2751 235.966 69.4348C235.798 69.4749 235.572 69.528 235.275 69.5146C235.136 69.5081 235.014 69.4882 234.91 69.4695C234.894 69.525 234.866 69.5826 234.814 69.6373C234.664 69.7985 234.42 69.8395 234.09 69.7486C233.725 69.6537 233.437 69.5246 233.183 69.4111C232.961 69.3122 232.77 69.2277 232.609 69.2046C232.31 69.1656 232.031 69.338 231.698 69.5674L230.862 70.153H230.862V70.153Z" fill="#F2F2F2"/>
<path d="M226.595 93.8369L226.362 93.6221L226.366 93.3167L226.362 93.6221L226.039 93.5902C226.04 93.5618 226.038 93.4953 226.036 93.3915C226.023 92.8229 225.985 91.0923 226.243 88.4332C226.423 86.577 226.724 84.6928 227.137 82.8321C227.551 80.9684 227.981 79.5818 228.326 78.4673C228.587 77.6267 228.85 76.8294 229.107 76.0527C229.792 73.9778 230.438 72.0178 230.839 69.7821C230.929 69.283 231.115 68.2442 230.734 67.018C230.513 66.3068 230.134 65.6375 229.608 65.029L230.117 64.6449C230.697 65.3172 231.116 66.0585 231.362 66.8481C231.784 68.2076 231.582 69.3396 231.484 69.8835C231.076 72.1587 230.423 74.1375 229.731 76.2324C229.476 77.0063 229.214 77.8001 228.954 78.6373C228.612 79.7415 228.186 81.1161 227.778 82.9558C227.369 84.7943 227.072 86.6554 226.894 88.4882C226.639 91.1137 226.677 92.8186 226.69 93.3787C226.696 93.6777 226.698 93.7403 226.595 93.8369V93.8369Z" fill="#F2F2F2"/>
<path d="M228.211 65.7325C228.185 65.7271 228.159 65.721 228.132 65.7137C227.595 65.573 227.165 65.1642 226.852 64.4987C226.705 64.1858 226.671 63.8565 226.602 63.1997C226.591 63.0984 226.543 62.586 226.602 61.9069C226.64 61.4631 226.691 61.2849 226.821 61.1449C226.964 60.989 227.158 60.8997 227.362 60.8549C227.367 60.7961 227.388 60.7387 227.429 60.6842C227.597 60.4582 227.878 60.5511 228.031 60.5994C228.108 60.6252 228.204 60.6581 228.312 60.675C228.481 60.7024 228.582 60.6746 228.735 60.6331C228.882 60.5934 229.064 60.5439 229.316 60.5481C229.813 60.5545 230.181 60.7632 230.302 60.8319C230.941 61.1906 231.162 61.7629 231.417 62.4255C231.468 62.5583 231.636 63.0384 231.675 63.6566C231.704 64.1027 231.641 64.2852 231.569 64.4158C231.423 64.6841 231.199 64.8086 230.642 65.0703C230.06 65.3446 229.768 65.4818 229.529 65.5524C228.972 65.7157 228.623 65.8183 228.211 65.7325V65.7325Z" fill="#F2F2F2"/>
<path d="M63.3142 72.4377L62.8869 59.8419C62.8799 59.6375 62.9659 59.4384 63.1229 59.2958C63.28 59.1531 63.4954 59.0783 63.7141 59.0905L74.412 59.69C74.6281 59.702 74.8309 59.7986 74.9684 59.9548C75.1059 60.111 75.1681 60.3155 75.1392 60.5159L73.3294 73.035C73.2747 73.4138 72.9121 73.6907 72.504 73.6654L64.0432 73.1426C63.9574 73.1373 63.8756 73.1194 63.7999 73.0908C63.5205 72.9852 63.3243 72.7343 63.3142 72.4377Z" fill="#F7941D"/>
<path d="M62.9001 58.6636C63.0498 58.6489 63.2503 58.6308 63.491 58.6119C63.4266 58.4999 63.4003 58.3676 63.4278 58.2317L63.6189 57.2882C63.6684 57.0433 63.8796 56.8556 64.144 56.8226C65.7192 56.6258 71.137 56.0919 74.5485 57.5379C74.762 57.6284 74.8993 57.8271 74.9061 58.046L74.9373 59.0525C74.9411 59.177 74.9024 59.2923 74.8346 59.388C75.1182 59.4592 75.4009 59.5346 75.6813 59.6167C75.857 59.6682 75.9828 59.8131 76.0039 59.984L76.0569 60.4128C76.0906 60.6848 75.8518 60.9187 75.5594 60.9003L62.7699 60.0933C62.4788 60.0749 62.2761 59.8154 62.3462 59.5508L62.4935 58.9942C62.541 58.8149 62.7035 58.6829 62.9001 58.6636V58.6636Z" fill="#3F3D56"/>
<path d="M31.1192 36.6953L30.6919 24.0995C30.6849 23.895 30.7709 23.696 30.9279 23.5534C31.085 23.4107 31.3004 23.3359 31.5191 23.3481L42.217 23.9476C42.4331 23.9596 42.6359 24.0561 42.7734 24.2124C42.9109 24.3686 42.9731 24.573 42.9441 24.7734L41.1344 37.2926C41.0797 37.6714 40.7171 37.9482 40.309 37.9229L31.8482 37.4002C31.7624 37.3949 31.6806 37.377 31.6049 37.3484C31.3255 37.2428 31.1293 36.9919 31.1192 36.6953V36.6953Z" fill="#F7941D"/>
<path d="M30.7051 22.9212C30.8548 22.9064 31.0553 22.8883 31.296 22.8694C31.2316 22.7575 31.2053 22.6251 31.2328 22.4892L31.4239 21.5458C31.4734 21.3009 31.6846 21.1132 31.949 21.0801C33.5241 20.8834 38.942 20.3494 42.3535 21.7955C42.5669 21.886 42.7043 22.0847 42.7111 22.3035L42.7423 23.3101C42.7461 23.4345 42.7074 23.5499 42.6396 23.6455C42.9232 23.7168 43.2059 23.7921 43.4863 23.8743C43.662 23.9258 43.7878 24.0707 43.8089 24.2416L43.8619 24.6703C43.8955 24.9424 43.6568 25.1763 43.3644 25.1578L30.5749 24.3509C30.2838 24.3325 30.0811 24.073 30.1512 23.8084L30.2985 23.2518C30.346 23.0725 30.5085 22.9405 30.7051 22.9212V22.9212Z" fill="#3F3D56"/>
<path d="M198.912 75.6226L198.485 63.0268C198.478 62.8224 198.564 62.6233 198.721 62.4807C198.878 62.338 199.093 62.2632 199.312 62.2755L210.01 62.8749C210.226 62.8869 210.429 62.9835 210.566 63.1398C210.704 63.2959 210.766 63.5004 210.737 63.7008L208.927 76.22C208.872 76.5987 208.51 76.8756 208.102 76.8503L199.641 76.3275C199.555 76.3222 199.473 76.3044 199.398 76.2758C199.118 76.1702 198.922 75.9192 198.912 75.6226Z" fill="#F7941D"/>
<path d="M198.498 61.8485C198.648 61.8338 198.848 61.8157 199.089 61.7968C199.024 61.6849 198.998 61.5525 199.026 61.4166L199.217 60.4731C199.266 60.2283 199.477 60.0405 199.742 60.0075C201.317 59.8107 206.735 59.2768 210.146 60.7229C210.36 60.8134 210.497 61.012 210.504 61.2309L210.535 62.2375C210.539 62.3619 210.5 62.4773 210.432 62.5729C210.716 62.6441 210.999 62.7195 211.279 62.8017C211.455 62.8531 211.581 62.998 211.602 63.169L211.655 63.5977C211.688 63.8698 211.45 64.1037 211.157 64.0852L198.368 63.2782C198.077 63.2599 197.874 63.0004 197.944 62.7358L198.091 62.1792C198.139 61.9999 198.301 61.8679 198.498 61.8485V61.8485Z" fill="#3F3D56"/>
</g>
<defs>
<clipPath id="clip0_65_75">
<rect width="250" height="169" fill="white"/>
</clipPath>
</defs>
</svg>
